<svg xmlns="http://www.w3.org/2000/svg" viewBox="0 0 9350 374" width="9350" height="374"><g fill="#648dfa"><path d="M239.62 339.66c-3.53-1.2-7-2.49-10.55-3.8-5.52-2.05-11-4.11-16.62-5.85-4.543-1.448-9.181-2.581-13.88-3.39-3.13-.513-6.284-.867-9.45-1.06-2.76-.18-5.52-.25-8.29-.24-4.18 0-8.37.23-12.55.54-3.49.25-7 .59-10.42.94-1.102.114-2.203.229-3.304.345-1.101.116-2.201.233-3.302.351-1.1.117-2.2.235-3.301.354-1.101.118-2.202.237-3.304.355-1.102.119-2.205.237-3.309.355-4 .42-7.93.84-11.9 1.23-3.97.39-7.78.75-11.67 1.07-3.69.31-7.38.58-11.07.79-3.69.21-7.53.38-11.29.47-4.76.11-9.52.1-14.27-.08-3-.11-6-.28-9-.53 5.287 4.37 10.798 8.462 16.51 12.26 15.946 10.612 33.431 18.707 51.84 24 9.779 2.799 19.773 4.782 29.88 5.93 11.307 1.285 22.708 1.532 34.06.74 30.508-2.163 60.057-11.611 86.16-27.55 3.847-2.353 7.617-4.84 11.31-7.46-4.65 1.1-9.22 2.34-13.82 3.4-3.47.79-7 1.48-10.5 1.94-2.616.357-5.25.557-7.89.6-3.056.032-6.11-.148-9.14-.54-3.914-.516-7.789-1.291-11.6-2.32-3.14-.83-6.24-1.8-9.33-2.85"/><path d="M269.69 345.37c-3.056.032-6.11-.148-9.14-.54-3.914-.516-7.789-1.291-11.6-2.32-3.14-.83-6.24-1.8-9.33-2.85-3.53-1.2-7-2.49-10.55-3.8-5.52-2.05-11-4.11-16.62-5.85-4.543-1.448-9.181-2.581-13.88-3.39-3.13-.513-6.284-.867-9.45-1.06-2.76-.18-5.52-.25-8.29-.24-4.18 0-8.37.23-12.55.54-3.49.25-7 .59-10.42.94-5.51.57-11 1.17-16.52 1.76-4 .42-7.93.84-11.9 1.23-3.97.39-7.78.75-11.67 1.07-3.69.31-7.38.58-11.07.79-3.69.21-7.53.38-11.29.47-4.76.11-9.52.1-14.27-.08-3-.11-6-.28-9-.53 5.287 4.37 10.798 8.462 16.51 12.26 15.946 10.612 33.431 18.707 51.84 24 9.779 2.799 19.773 4.782 29.88 5.93 11.307 1.285 22.708 1.532 34.06.74 30.508-2.163 60.057-11.611 86.16-27.55q5.77-3.53 11.31-7.46c-4.65 1.1-9.22 2.34-13.82 3.4-3.47.79-7 1.48-10.5 1.94-2.616.357-5.25.557-7.89.6z"/></g><g fill="#648dfa"><path d="M613.663 339.467c-3.553-1.197-7.046-2.486-10.618-3.801-5.53-2.052-11.02-4.115-16.648-5.862-4.553-1.455-9.199-2.598-13.905-3.419-3.151-.534-6.322-.913-9.5-1.135-2.785-.226-5.558-.348-8.328-.393-4.177-.056-8.35.118-12.501.375-3.468.212-6.949.517-10.336.835-1.085.096-2.15.195-3.269.281-1.119.088-2.244.23-3.363.355-1.115.123-2.23.248-3.344.374-1.136.135-2.27.276-3.402.421-1.13.145-2.257.294-3.38.445-4.007.444-7.941.89-11.912 1.307-3.972.418-7.781.808-11.668 1.159-3.688.344-7.372.648-11.053.894-3.681.253-7.504.466-11.241.598-4.736.147-9.467.172-14.183.024-2.969-.075-5.934-.212-8.895-.433 5.293 4.377 10.811 8.475 16.531 12.278 15.934 10.605 33.406 18.695 51.801 23.987 9.786 2.804 19.787 4.791 29.902 5.941 11.312 1.287 22.719 1.534 34.077.742 30.508-2.163 60.057-11.611 86.16-27.55 3.862-2.363 7.647-4.862 11.354-7.496-4.578 1.042-9.092 2.208-13.657 3.186-3.456.77-6.965 1.438-10.476 1.883-2.621.347-5.258.548-7.9.595-.009.005-.017.014-.025.02-3.081.06-6.162-.098-9.222-.474-3.942-.5-7.847-1.266-11.692-2.294-3.132-.828-6.225-1.795-9.307-2.843"/><path d="M643.69 345.37c-3.056.032-6.11-.148-9.14-.54-3.914-.516-7.789-1.291-11.6-2.32-3.14-.83-6.24-1.8-9.33-2.85-3.53-1.2-7-2.49-10.55-3.8-5.52-2.05-11-4.11-16.62-5.85-4.543-1.448-9.181-2.581-13.88-3.39-3.13-.513-6.284-.867-9.45-1.06-2.76-.18-5.52-.25-8.29-.24-4.18 0-8.37.23-12.55.54-3.49.25-7 .59-10.42.94-5.51.57-11 1.17-16.52 1.76-4 .42-7.93.84-11.9 1.23-3.97.39-7.78.75-11.67 1.07-3.69.31-7.38.58-11.07.79-3.69.21-7.53.38-11.29.47-4.76.11-9.52.1-14.27-.08-3-.11-6-.28-9-.53 5.287 4.37 10.798 8.462 16.51 12.26 15.946 10.612 33.431 18.707 51.84 24 9.779 2.799 19.773 4.782 29.88 5.93 11.307 1.285 22.708 1.532 34.06.74 30.508-2.163 60.057-11.611 86.16-27.55q5.77-3.53 11.31-7.46c-4.65 1.1-9.22 2.34-13.82 3.4-3.47.79-7 1.48-10.5 1.94-2.616.357-5.25.557-7.89.6z"/></g><g fill="#648dfa"><path d="M987.804 338.831c-3.628-1.189-7.195-2.474-10.841-3.806-5.564-2.055-11.086-4.131-16.741-5.9-4.585-1.478-9.26-2.653-13.989-3.515-3.218-.602-6.445-1.065-9.664-1.383-2.866-.375-5.683-.671-8.453-.899-4.166-.237-8.285-.25-12.338-.168-3.395.088-6.783.275-10.06.489-1.031.037-1.976.08-3.155.071-1.177-.006-2.385.218-3.563.366-1.165.144-2.327.29-3.486.44-1.253.193-2.495.408-3.723.641-1.223.23-2.43.479-3.617.742-4.028.524-7.975 1.054-11.95 1.559-3.978.513-7.786 1.001-11.662 1.451-3.682.457-7.348.877-10.997 1.238-3.65.397-7.418.753-11.078 1.022-4.656.267-9.291.407-13.897.368-2.867.041-5.716.01-8.55-.115 5.313 4.4 10.854 8.518 16.599 12.338 15.898 10.58 33.326 18.655 51.673 23.944 9.809 2.821 19.836 4.82 29.978 5.977 11.329 1.293 22.754 1.543 34.13.749 30.508-2.163 60.057-11.611 86.159-27.55 3.917-2.396 7.751-4.934 11.501-7.614-4.34.849-8.67 1.77-13.12 2.479-3.41.706-6.848 1.302-10.395 1.695-2.638.316-5.286.518-7.936.581-.038.02-.072.057-.105.085-3.163.152-6.334.067-9.492-.258-4.034-.449-8.04-1.185-11.997-2.207-3.106-.821-6.173-1.781-9.231-2.82"/><path d="M1017.69 345.37c-3.056.032-6.11-.148-9.14-.54-3.914-.516-7.789-1.291-11.6-2.32-3.14-.83-6.24-1.8-9.33-2.85-3.53-1.2-7-2.49-10.55-3.8-5.52-2.05-11-4.11-16.62-5.85-4.543-1.448-9.181-2.581-13.88-3.39-3.13-.513-6.284-.867-9.45-1.06-2.76-.18-5.52-.25-8.29-.24-4.18 0-8.37.23-12.55.54-3.49.25-7 .59-10.42.94-5.51.57-11 1.17-16.52 1.76-4 .42-7.93.84-11.9 1.23-3.97.39-7.78.75-11.67 1.07-3.69.31-7.38.58-11.07.79-3.69.21-7.53.38-11.29.47-4.76.11-9.52.1-14.27-.08-3-.11-6-.28-9-.53 5.287 4.37 10.798 8.462 16.51 12.26 15.946 10.612 33.431 18.707 51.84 24 9.779 2.799 19.773 4.782 29.88 5.93 11.307 1.285 22.708 1.532 34.06.74 30.508-2.163 60.057-11.611 86.16-27.55q5.77-3.53 11.31-7.46c-4.65 1.1-9.22 2.34-13.82 3.4-3.47.79-7 1.48-10.5 1.94-2.616.357-5.25.557-7.89.6z"/></g><g fill="#648dfa"><path d="M1362.068 337.646c-3.769-1.174-7.475-2.452-11.258-3.815-5.627-2.064-11.208-4.162-16.915-5.972-4.645-1.52-9.372-2.755-14.144-3.695-3.344-.729-6.674-1.348-9.97-1.845-3.017-.654-5.916-1.273-8.687-1.84-4.146-.576-8.162-.938-12.035-1.182-3.257-.144-6.472-.175-9.545-.157-.927-.072-1.65-.131-2.941-.32-1.287-.181-2.647.196-3.937.388-1.258.181-2.508.369-3.75.564-1.469.3-2.913.652-4.321 1.05-1.397.389-2.753.825-4.059 1.295-4.067.671-8.039 1.359-12.022 2.03-3.989.689-7.795 1.359-11.649 1.996-3.671.666-7.302 1.301-10.894 1.877-3.591.665-7.256 1.288-10.774 1.812-4.508.492-8.964.848-13.365 1.009-2.675.258-5.308.426-7.905.479 5.351 4.443 10.935 8.599 16.727 12.45 15.828 10.534 33.174 18.582 51.433 23.864 9.853 2.852 19.927 4.874 30.118 6.044 11.361 1.304 22.819 1.559 34.23.762 30.508-2.163 60.057-11.611 86.159-27.55 4.017-2.457 7.942-5.069 11.773-7.834-3.895.49-7.882.955-12.118 1.162-3.325.584-6.632 1.046-10.245 1.343-2.668.259-5.337.463-8.001.555-.093.049-.175.138-.255.206-3.316.324-6.655.375-9.998.144-4.204-.351-8.398-1.031-12.563-2.044-3.059-.808-6.079-1.753-9.089-2.776"/><path d="M1391.69 345.37c-3.056.032-6.11-.148-9.14-.54-3.914-.516-7.789-1.291-11.6-2.32-3.14-.83-6.24-1.8-9.33-2.85-3.53-1.2-7-2.49-10.55-3.8-5.52-2.05-11-4.11-16.62-5.85-4.543-1.448-9.181-2.581-13.88-3.39-3.13-.513-6.284-.867-9.45-1.06-2.76-.18-5.52-.25-8.29-.24-4.18 0-8.37.23-12.55.54-3.49.25-7 .59-10.42.94-5.51.57-11 1.17-16.52 1.76-4 .42-7.93.84-11.9 1.23-3.97.39-7.78.75-11.67 1.07-3.69.31-7.38.58-11.07.79-3.69.21-7.53.38-11.29.47-4.76.11-9.52.1-14.27-.08-3-.11-6-.28-9-.53 5.287 4.37 10.798 8.462 16.51 12.26 15.946 10.612 33.431 18.707 51.84 24 9.779 2.799 19.773 4.782 29.88 5.93 11.307 1.285 22.708 1.532 34.06.74 30.508-2.163 60.057-11.611 86.16-27.55q5.77-3.53 11.31-7.46c-4.65 1.1-9.22 2.34-13.82 3.4-3.47.79-7 1.48-10.5 1.94-2.616.357-5.25.557-7.89.6z"/></g><g fill="#648dfa"><path d="M1736.485 335.771c-3.991-1.149-7.917-2.415-11.917-3.828-5.727-2.077-11.402-4.211-17.189-6.086-4.741-1.587-9.551-2.917-14.39-3.978-3.543-.931-7.038-1.796-10.453-2.575-3.258-1.096-6.285-2.226-9.058-3.329-4.113-1.113-7.968-2.026-11.556-2.785-3.04-.512-5.98-.888-8.73-1.178-.765-.246-1.135-.467-2.604-.939-1.459-.457-3.061.161-4.528.423-1.404.239-2.793.493-4.166.759-1.813.469-3.575 1.038-5.269 1.696-1.67.642-3.262 1.372-4.757 2.17-4.129.905-8.14 1.842-12.134 2.775-4.007.967-7.809 1.925-11.631 2.858-3.652.998-7.23 1.971-10.73 2.888-3.499 1.089-7.001 2.132-10.293 3.062-4.274.846-8.448 1.542-12.523 2.021-2.373.6-4.665 1.084-6.886 1.419 5.411 4.51 11.063 8.725 16.93 12.626 15.717 10.461 32.934 18.465 51.054 23.737 9.92 2.902 20.07 4.959 30.339 6.15 11.41 1.322 22.922 1.584 34.389.783 30.507-2.163 60.055-11.611 86.157-27.55 4.175-2.553 8.245-5.282 12.203-8.183-3.191-.077-6.636-.334-10.533-.92-3.191.394-6.29.643-10.008.788-2.717.167-5.418.376-8.105.512-.178.095-.338.266-.492.399-3.559.595-7.161.862-10.795.781-4.474-.199-8.966-.79-13.461-1.788-2.983-.788-5.928-1.71-8.864-2.708"/><path d="M1765.69 345.37c-3.056.032-6.11-.148-9.14-.54-3.914-.516-7.789-1.291-11.6-2.32-3.14-.83-6.24-1.8-9.33-2.85-3.53-1.2-7-2.49-10.55-3.8-5.52-2.05-11-4.11-16.62-5.85-4.543-1.448-9.181-2.581-13.88-3.39-3.13-.513-6.284-.867-9.45-1.06-2.76-.18-5.52-.25-8.29-.24-4.18 0-8.37.23-12.55.54-3.49.25-7 .59-10.42.94-5.51.57-11 1.17-16.52 1.76-4 .42-7.93.84-11.9 1.23-3.97.39-7.78.75-11.67 1.07-3.69.31-7.38.58-11.07.79-3.69.21-7.53.38-11.29.47-4.76.11-9.52.1-14.27-.08-3-.11-6-.28-9-.53 5.287 4.37 10.798 8.462 16.51 12.26 15.946 10.612 33.431 18.707 51.84 24 9.779 2.799 19.773 4.782 29.88 5.93 11.307 1.285 22.708 1.532 34.06.74 30.508-2.163 60.057-11.611 86.16-27.55q5.77-3.53 11.31-7.46c-4.65 1.1-9.22 2.34-13.82 3.4-3.47.79-7 1.48-10.5 1.94-2.616.357-5.25.557-7.89.6z"/></g><g fill="#648dfa"><path d="M2111.095 333.032c-4.316-1.114-8.564-2.363-12.881-3.849-5.873-2.095-11.684-4.281-17.589-6.251-4.881-1.686-9.811-3.155-14.749-4.393-3.835-1.225-7.569-2.451-11.161-3.643-3.607-1.741-6.823-3.617-9.599-5.505-4.065-1.897-7.684-3.614-10.855-5.127-2.724-1.048-5.262-1.929-7.54-2.669-.527-.501-.381-.958-2.11-1.844-1.711-.861-3.668.11-5.393.474-1.618.325-3.209.673-4.775 1.045-2.314.715-4.542 1.602-6.652 2.639-2.071 1.011-4.007 2.172-5.778 3.449-4.22 1.247-8.289 2.549-12.299 3.863-4.033 1.374-7.829 2.754-11.603 4.118-3.626 1.482-7.124 2.95-10.491 4.366-3.364 1.708-6.628 3.367-9.591 4.887-3.93 1.366-7.692 2.56-11.292 3.502-1.932 1.1-3.724 2.044-5.397 2.792 5.499 4.609 11.25 8.911 17.226 12.884 15.557 10.355 32.585 18.294 50.5 23.551 10.02 2.975 20.279 5.085 30.664 6.306 11.482 1.347 23.072 1.62 34.619.813 30.507-2.164 60.054-11.612 86.156-27.55 4.406-2.693 8.688-5.594 12.832-8.692-2.164-.906-4.815-2.218-8.218-3.964-2.993.115-5.789.054-9.661-.023-2.788.033-5.536.248-8.256.45-.304.162-.576.454-.839.679-3.913.992-7.902 1.574-11.961 1.712-4.869.025-9.795-.436-14.771-1.413-2.873-.759-5.709-1.646-8.536-2.607"/><path d="M2139.69 345.37c-3.056.032-6.11-.148-9.14-.54-3.914-.516-7.789-1.291-11.6-2.32-3.14-.83-6.24-1.8-9.33-2.85-3.53-1.2-7-2.49-10.55-3.8-5.52-2.05-11-4.11-16.62-5.85-4.543-1.448-9.181-2.581-13.88-3.39-3.13-.513-6.284-.867-9.45-1.06-2.76-.18-5.52-.25-8.29-.24-4.18 0-8.37.23-12.55.54-3.49.25-7 .59-10.42.94-5.51.57-11 1.17-16.52 1.76-4 .42-7.93.84-11.9 1.23-3.97.39-7.78.75-11.67 1.07-3.69.31-7.38.58-11.07.79-3.69.21-7.53.38-11.29.47-4.76.11-9.52.1-14.27-.08-3-.11-6-.28-9-.53 5.287 4.37 10.798 8.462 16.51 12.26 15.946 10.612 33.431 18.707 51.84 24 9.779 2.799 19.773 4.782 29.88 5.93 11.307 1.285 22.708 1.532 34.06.74 30.508-2.163 60.057-11.611 86.16-27.55q5.77-3.53 11.31-7.46c-4.65 1.1-9.22 2.34-13.82 3.4-3.47.79-7 1.48-10.5 1.94-2.616.357-5.25.557-7.89.6z"/></g><g fill="#648dfa"><path d="M2485.941 329.228c-4.767-1.064-9.46-2.29-14.219-3.876-6.074-2.122-12.077-4.38-18.144-6.482-5.076-1.822-10.174-3.484-15.249-4.968-4.239-1.634-8.306-3.36-12.142-5.126-4.094-2.637-7.571-5.549-10.35-8.526-3.999-2.986-7.29-5.82-9.882-8.38-2.284-1.793-4.265-3.374-5.887-4.74-.198-.853.663-1.639-1.426-3.1-2.061-1.423-4.509.04-6.592.544-1.915.444-3.789.925-5.622 1.442-3.01 1.058-5.884 2.385-8.572 3.949-2.628 1.524-5.042 3.283-7.195 5.225-4.347 1.722-8.495 3.529-12.528 5.374-4.07 1.938-7.858 3.904-11.566 5.868-3.589 2.154-6.976 4.31-10.158 6.419-3.177 2.566-6.111 5.08-8.616 7.421-3.454 2.087-6.643 3.971-9.582 5.557-1.319 1.795-2.419 3.379-3.33 4.699 5.62 4.746 11.509 9.168 17.636 13.242 15.334 10.208 32.1 18.057 49.732 23.293 10.158 3.076 20.569 5.259 31.113 6.522 11.583 1.383 23.282 1.671 34.941.855 30.505-2.164 60.052-11.612 86.153-27.55 4.727-2.889 9.302-6.026 13.706-9.4-.738-2.057-2.287-4.832-5.003-8.189-2.72-.273-5.094-.765-9.18-1.15-2.887-.153-5.7.071-8.466.364-.479.255-.906.714-1.32 1.069-4.405 1.542-8.93 2.562-13.581 3.005-5.417.335-10.946.054-16.59-.893-2.72-.718-5.405-1.558-8.081-2.468"/><path d="M2513.69 345.37c-3.056.032-6.11-.148-9.14-.54-3.914-.516-7.789-1.291-11.6-2.32-3.14-.83-6.24-1.8-9.33-2.85-3.53-1.2-7-2.49-10.55-3.8-5.52-2.05-11-4.11-16.62-5.85-4.543-1.448-9.181-2.581-13.88-3.39-3.13-.513-6.284-.867-9.45-1.06-2.76-.18-5.52-.25-8.29-.24-4.18 0-8.37.23-12.55.54-3.49.25-7 .59-10.42.94-5.51.57-11 1.17-16.52 1.76-4 .42-7.93.84-11.9 1.23-3.97.39-7.78.75-11.67 1.07-3.69.31-7.38.58-11.07.79-3.69.21-7.53.38-11.29.47-4.76.11-9.52.1-14.27-.08-3-.11-6-.28-9-.53 5.287 4.37 10.798 8.462 16.51 12.26 15.946 10.612 33.431 18.707 51.84 24 9.779 2.799 19.773 4.782 29.88 5.93 11.307 1.285 22.708 1.532 34.06.74 30.508-2.163 60.057-11.611 86.16-27.55q5.77-3.53 11.31-7.46c-4.65 1.1-9.22 2.34-13.82 3.4-3.47.79-7 1.48-10.5 1.94-2.616.357-5.25.557-7.89.6z"/></g><g fill="#648dfa"><path d="M2861.059 324.204c-5.363-1-10.645-2.195-15.986-3.913-6.341-2.156-12.595-4.51-18.878-6.787-5.332-2.002-10.652-3.919-15.908-5.728-4.774-2.174-9.28-4.561-13.439-7.083-4.736-3.821-8.559-8.103-11.342-12.519-3.913-4.423-6.77-8.733-8.597-12.676-1.704-2.776-2.948-5.282-3.704-7.475.238-1.319 2.044-2.539-.521-4.76-2.524-2.163-5.621-.053-8.178.638-2.307.601-4.553 1.256-6.738 1.965-3.93 1.511-7.658 3.421-11.111 5.681-3.363 2.2-6.408 4.749-9.066 7.57-4.514 2.35-8.767 4.825-12.831 7.371-4.118 2.684-7.896 5.422-11.515 8.178-3.541 3.043-6.782 6.107-9.719 9.13-2.931 3.701-5.428 7.345-7.329 10.77-2.825 3.039-5.256 5.835-7.323 8.271-.51 2.712-.694 5.142-.6 7.218 5.781 4.928 11.852 9.508 18.18 13.715 15.039 10.013 31.457 17.744 48.716 22.953 10.341 3.209 20.953 5.488 31.707 6.807 11.715 1.429 23.558 1.737 35.364.91 30.505-2.165 60.051-11.613 86.151-27.55 5.151-3.146 10.114-6.598 14.86-10.334 1.146-3.578 1.051-8.287-.757-13.771-2.359-.785-4.176-1.846-8.543-2.638-3.019-.399-5.918-.163-8.744.25-.71.378-1.343 1.058-1.957 1.584-5.054 2.27-10.288 3.866-15.719 4.712-6.141.745-12.467.702-18.994-.205-2.517-.665-5.002-1.443-7.479-2.284"/><path d="M2887.69 345.37c-3.056.032-6.11-.148-9.14-.54-3.914-.516-7.789-1.291-11.6-2.32-3.14-.83-6.24-1.8-9.33-2.85-3.53-1.2-7-2.49-10.55-3.8-5.52-2.05-11-4.11-16.62-5.85-4.543-1.448-9.181-2.581-13.88-3.39-3.13-.513-6.284-.867-9.45-1.06-2.76-.18-5.52-.25-8.29-.24-4.18 0-8.37.23-12.55.54-3.49.25-7 .59-10.42.94-5.51.57-11 1.17-16.52 1.76-4 .42-7.93.84-11.9 1.23-3.97.39-7.78.75-11.67 1.07-3.69.31-7.38.58-11.07.79-3.69.21-7.53.38-11.29.47-4.76.11-9.52.1-14.27-.08-3-.11-6-.28-9-.53 5.287 4.37 10.798 8.462 16.51 12.26 15.946 10.612 33.431 18.707 51.84 24 9.779 2.799 19.773 4.782 29.88 5.93 11.307 1.285 22.708 1.532 34.06.74 30.508-2.163 60.057-11.611 86.16-27.55q5.77-3.53 11.31-7.46c-4.65 1.1-9.22 2.34-13.82 3.4-3.47.79-7 1.48-10.5 1.94-2.616.357-5.25.557-7.89.6z"/></g><g fill="#648dfa"><path d="M3236.439 318.005c-6.1-.919-12.108-2.076-18.166-3.958-6.672-2.199-13.236-4.671-19.784-7.163-5.649-2.224-11.242-4.455-16.722-6.665-5.433-2.84-10.482-6.042-15.039-9.499-5.529-5.281-9.777-11.252-12.565-17.442-3.806-6.198-6.129-12.329-7.013-17.977-.987-3.989-1.322-7.637-1.01-10.849.775-1.895 3.748-3.65.595-6.808-3.094-3.078-6.992-.168-10.133.754-2.791.794-5.496 1.665-8.117 2.61-5.064 2.069-9.846 4.697-14.241 7.817-4.27 3.035-8.093 6.559-11.376 10.464-4.72 3.123-9.102 6.423-13.204 9.832-4.178 3.605-7.942 7.297-11.453 11.03-3.48 4.139-6.541 8.324-9.177 12.474-2.626 5.102-4.584 10.138-5.74 14.901-2.049 4.214-3.546 8.135-4.538 11.621.489 3.844 1.434 7.315 2.77 10.325 5.979 5.151 12.275 9.927 18.849 14.298 14.675 9.773 30.666 17.358 47.463 22.533 10.566 3.374 21.426 5.771 32.44 7.159 11.879 1.487 23.899 1.819 35.888.978 30.503-2.165 60.047-11.613 86.146-27.55 5.675-3.464 11.116-7.303 16.284-11.486 3.471-5.454 5.171-12.55 4.482-20.657-1.913-1.418-3.043-3.181-7.759-4.475-3.18-.702-6.185-.452-9.086.109-.995.53-1.882 1.484-2.741 2.22-5.856 3.167-11.964 5.476-18.358 6.818-7.033 1.252-14.342 1.502-21.96.644-2.266-.599-4.505-1.3-6.735-2.058"/><path d="M3261.69 345.37c-3.056.032-6.11-.148-9.14-.54-3.914-.516-7.789-1.291-11.6-2.32-3.14-.83-6.24-1.8-9.33-2.85-3.53-1.2-7-2.49-10.55-3.8-5.52-2.05-11-4.11-16.62-5.85-4.543-1.448-9.181-2.581-13.88-3.39-3.13-.513-6.284-.867-9.45-1.06-2.76-.18-5.52-.25-8.29-.24-4.18 0-8.37.23-12.55.54-3.49.25-7 .59-10.42.94-5.51.57-11 1.17-16.52 1.76-4 .42-7.93.84-11.9 1.23-3.97.39-7.78.75-11.67 1.07-3.69.31-7.38.58-11.07.79-3.69.21-7.53.38-11.29.47-4.76.11-9.52.1-14.27-.08-3-.11-6-.28-9-.53 5.287 4.37 10.798 8.462 16.51 12.26 15.946 10.612 33.431 18.707 51.84 24 9.779 2.799 19.773 4.782 29.88 5.93 11.307 1.285 22.708 1.532 34.06.74 30.508-2.163 60.057-11.611 86.16-27.55q5.77-3.53 11.31-7.46c-4.65 1.1-9.22 2.34-13.82 3.4-3.47.79-7 1.48-10.5 1.94-2.616.357-5.25.557-7.89.6z"/></g><g fill="#648dfa"><path d="M3611.985 311.055c-6.924-.829-13.747-1.943-20.61-4.009-7.041-2.246-13.953-4.85-20.8-7.584-6.004-2.473-11.903-5.057-17.634-7.717-6.172-3.587-11.828-7.702-16.832-12.207-6.417-6.918-11.144-14.783-13.938-22.964-3.686-8.186-5.409-16.359-5.235-23.919-.184-5.35.5-10.278 2.01-14.633 1.378-2.54 5.658-4.895 1.847-9.104-3.734-4.103-8.53-.297-12.326.883-3.333 1.012-6.554 2.124-9.663 3.335-6.336 2.695-12.299 6.129-17.751 10.212-5.287 3.971-9.983 8.587-13.965 13.708-4.951 3.991-9.478 8.215-13.623 12.594-4.244 4.635-7.993 9.398-11.383 14.226-3.413 5.367-6.272 10.809-8.569 16.224-2.285 6.672-3.639 13.27-3.959 19.533-1.178 5.53-1.629 10.713-1.414 15.375 1.609 5.113 3.82 9.754 6.547 13.81 6.201 5.401 12.749 10.397 19.599 14.952 14.268 9.504 29.78 16.926 46.059 22.062 10.819 3.558 21.957 6.088 33.261 7.553 12.063 1.553 24.281 1.912 36.475 1.055 30.502-2.166 60.044-11.614 86.142-27.55 6.261-3.821 12.239-8.093 17.881-12.778 6.076-7.558 9.789-17.329 10.355-28.379-1.413-2.126-1.773-4.676-6.878-6.533-3.362-1.042-6.485-.776-9.47-.049-1.315.7-2.486 1.96-3.621 2.933-6.755 4.173-13.843 7.281-21.318 9.179-8.034 1.819-16.445 2.399-25.284 1.595-1.986-.525-3.948-1.139-5.903-1.803"/><path d="M3635.69 345.37c-3.056.032-6.11-.148-9.14-.54-3.914-.516-7.789-1.291-11.6-2.32-3.14-.83-6.24-1.8-9.33-2.85-3.53-1.2-7-2.49-10.55-3.8-5.52-2.05-11-4.11-16.62-5.85-4.543-1.448-9.181-2.581-13.88-3.39-3.13-.513-6.284-.867-9.45-1.06-2.76-.18-5.52-.25-8.29-.24-4.18 0-8.37.23-12.55.54-3.49.25-7 .59-10.42.94-5.51.57-11 1.17-16.52 1.76-4 .42-7.93.84-11.9 1.23-3.97.39-7.78.75-11.67 1.07-3.69.31-7.38.58-11.07.79-3.69.21-7.53.38-11.29.47-4.76.11-9.52.1-14.27-.08-3-.11-6-.28-9-.53 5.287 4.37 10.798 8.462 16.51 12.26 15.946 10.612 33.431 18.707 51.84 24 9.779 2.799 19.773 4.782 29.88 5.93 11.307 1.285 22.708 1.532 34.06.74 30.508-2.163 60.057-11.611 86.16-27.55q5.77-3.53 11.31-7.46c-4.65 1.1-9.22 2.34-13.82 3.4-3.47.79-7 1.48-10.5 1.94-2.616.357-5.25.557-7.89.6z"/></g><g fill="#648dfa"><path d="M3987.544 304.049c-7.755-.738-15.4-1.808-23.074-4.06-7.413-2.295-14.677-5.032-21.823-8.009-6.362-2.724-12.571-5.663-18.554-8.776-6.917-4.34-13.186-9.377-18.64-14.938-7.313-8.567-12.521-18.342-15.321-28.528-3.565-10.192-4.684-20.423-3.443-29.91.625-6.722 2.337-12.94 5.053-18.448 1.985-3.189 7.583-6.149 3.108-11.417-4.378-5.136-10.079-.427-14.535 1.013-3.88 1.231-7.62 2.586-11.221 4.065-7.618 3.326-14.772 7.572-21.29 12.626-6.311 4.914-11.888 10.633-16.574 16.978-5.184 4.866-9.858 10.021-14.045 15.377-4.311 5.676-8.045 11.516-11.313 17.449-3.345 6.605-6.001 13.314-7.956 20.004-1.941 8.254-2.687 16.427-2.163 24.201-.302 6.858.303 13.313 1.733 19.161 2.738 6.392 6.225 12.211 10.356 17.321 6.424 5.655 13.226 10.871 20.355 15.612 13.857 9.232 28.885 16.489 44.643 21.587 11.074 3.745 22.492 6.408 34.089 7.951 12.249 1.618 24.667 2.005 37.067 1.132 30.5-2.167 60.041-11.615 86.137-27.55 6.853-4.18 13.371-8.89 19.49-14.081 8.704-9.678 14.445-22.145 16.276-36.161-.909-2.841-.493-6.184-5.991-8.609-3.544-1.384-6.788-1.102-9.857-.207-1.636.871-3.095 2.439-4.508 3.651-7.66 5.186-15.736 9.1-24.3 11.559-9.043 2.391-18.565 3.302-28.635 2.554-1.704-.45-3.387-.977-5.064-1.547"/><path d="M4009.69 345.37c-3.056.032-6.11-.148-9.14-.54-3.914-.516-7.789-1.291-11.6-2.32-3.14-.83-6.24-1.8-9.33-2.85-3.53-1.2-7-2.49-10.55-3.8-5.52-2.05-11-4.11-16.62-5.85-4.543-1.448-9.181-2.581-13.88-3.39-3.13-.513-6.284-.867-9.45-1.06-2.76-.18-5.52-.25-8.29-.24-4.18 0-8.37.23-12.55.54-3.49.25-7 .59-10.42.94-5.51.57-11 1.17-16.52 1.76-4 .42-7.93.84-11.9 1.23-3.97.39-7.78.75-11.67 1.07-3.69.31-7.38.58-11.07.79-3.69.21-7.53.38-11.29.47-4.76.11-9.52.1-14.27-.08-3-.11-6-.28-9-.53 5.287 4.37 10.798 8.462 16.51 12.26 15.946 10.612 33.431 18.707 51.84 24 9.779 2.799 19.773 4.782 29.88 5.93 11.307 1.285 22.708 1.532 34.06.74 30.508-2.163 60.057-11.611 86.16-27.55q5.77-3.53 11.31-7.46c-4.65 1.1-9.22 2.34-13.82 3.4-3.47.79-7 1.48-10.5 1.94-2.616.357-5.25.557-7.89.6z"/></g><g fill="#648dfa"><path d="M4362.986 297.569c-8.524-.654-16.928-1.684-25.353-4.108-7.758-2.338-15.346-5.199-22.77-8.401-6.693-2.956-13.187-6.223-19.404-9.756-7.606-5.037-14.443-10.926-20.313-17.463-8.141-10.094-13.795-21.634-16.6-33.676-3.453-12.047-4.013-24.181-1.786-35.451 1.374-7.99 4.036-15.401 7.869-21.975 2.547-3.791 9.364-7.31 4.275-13.558-4.975-6.092-11.513-.547-16.58 1.134-4.386 1.434-8.606 3.014-12.661 4.74-8.805 3.91-17.06 8.906-24.563 14.858-7.259 5.787-13.65 12.525-18.989 20.003-5.399 5.675-10.208 11.693-14.434 17.952-4.374 6.637-8.094 13.475-11.249 20.429-3.282 7.751-5.75 15.631-7.389 23.5-1.622 9.718-1.806 19.347-.503 28.52.51 8.086 2.091 15.717 4.646 22.662 3.782 7.575 8.45 14.484 13.878 20.569 6.631 5.889 13.668 11.31 21.055 16.222 13.476 8.981 28.058 16.086 43.333 21.148 11.309 3.917 22.986 6.704 34.855 8.319 12.42 1.678 25.023 2.091 37.614 1.203 30.498-2.167 60.038-11.615 86.133-27.55 7.4-4.513 14.417-9.627 20.978-15.286 11.134-11.639 18.751-26.601 21.753-43.36-.443-3.501.691-7.578-5.171-10.528-3.713-1.701-7.067-1.404-10.215-.354-1.934 1.029-3.658 2.883-5.328 4.315-8.498 6.125-17.488 10.783-27.058 13.761-9.976 2.92-20.526 4.138-31.735 3.441-1.443-.381-2.868-.827-4.288-1.31"/><path d="M4383.69 345.37c-3.056.032-6.11-.148-9.14-.54-3.914-.516-7.789-1.291-11.6-2.32-3.14-.83-6.24-1.8-9.33-2.85-3.53-1.2-7-2.49-10.55-3.8-5.52-2.05-11-4.11-16.62-5.85-4.543-1.448-9.181-2.581-13.88-3.39-3.13-.513-6.284-.867-9.45-1.06-2.76-.18-5.52-.25-8.29-.24-4.18 0-8.37.23-12.55.54-3.49.25-7 .59-10.42.94-5.51.57-11 1.17-16.52 1.76-4 .42-7.93.84-11.9 1.23-3.97.39-7.78.75-11.67 1.07-3.69.31-7.38.58-11.07.79-3.69.21-7.53.38-11.29.47-4.76.11-9.52.1-14.27-.08-3-.11-6-.28-9-.53 5.287 4.37 10.798 8.462 16.51 12.26 15.946 10.612 33.431 18.707 51.84 24 9.779 2.799 19.773 4.782 29.88 5.93 11.307 1.285 22.708 1.532 34.06.74 30.508-2.163 60.057-11.611 86.16-27.55q5.77-3.53 11.31-7.46c-4.65 1.1-9.22 2.34-13.82 3.4-3.47.79-7 1.48-10.5 1.94-2.616.357-5.25.557-7.89.6z"/></g><g fill="#648dfa"><path d="M4738.254 291.873c-9.2-.58-18.272-1.576-27.357-4.15-8.061-2.377-15.934-5.346-23.602-8.746-6.984-3.16-13.729-6.716-20.151-10.618-8.212-5.649-15.547-12.286-21.784-19.682-8.869-11.436-14.914-24.529-17.724-38.202-3.355-13.676-3.424-27.483-.33-40.321 2.032-9.105 5.53-17.565 10.344-25.076 3.041-4.319 10.93-8.33 5.301-15.44-5.5-6.932-12.773-.652-18.376 1.24-4.831 1.612-9.474 3.39-13.929 5.334-9.847 4.423-19.071 10.08-27.44 16.821-8.092 6.554-15.198 14.188-21.11 22.662-5.588 6.386-10.517 13.161-14.778 20.215-4.428 7.482-8.136 15.197-11.191 23.049-3.227 8.758-5.529 17.668-6.891 26.573-1.343 11.004-1.031 21.913.957 32.316 1.222 9.165 3.662 17.83 7.206 25.74 4.699 8.615 10.405 16.481 16.973 23.424 6.814 6.094 14.056 11.695 21.671 16.758 13.142 8.761 27.33 15.731 42.181 20.762 11.517 4.068 23.422 6.964 35.529 8.643 12.57 1.731 25.336 2.166 38.094 1.265 30.498-2.168 60.036-11.616 86.129-27.55 7.882-4.805 15.339-10.275 22.288-16.345 13.27-13.363 22.536-30.517 26.566-49.688-.033-4.082 1.732-8.804-4.45-12.216-3.861-1.979-7.313-1.668-10.529-.483-2.196 1.169-4.153 3.274-6.049 4.9-9.234 6.949-19.028 12.262-29.483 15.696-10.797 3.385-22.25 4.873-34.46 4.22-1.214-.32-2.411-.695-3.605-1.101"/><path d="M4757.69 345.37c-3.056.032-6.11-.148-9.14-.54-3.914-.516-7.789-1.291-11.6-2.32-3.14-.83-6.24-1.8-9.33-2.85-3.53-1.2-7-2.49-10.55-3.8-5.52-2.05-11-4.11-16.62-5.85-4.543-1.448-9.181-2.581-13.88-3.39-3.13-.513-6.284-.867-9.45-1.06-2.76-.18-5.52-.25-8.29-.24-4.18 0-8.37.23-12.55.54-3.49.25-7 .59-10.42.94-5.51.57-11 1.17-16.52 1.76-4 .42-7.93.84-11.9 1.23-3.97.39-7.78.75-11.67 1.07-3.69.31-7.38.58-11.07.79-3.69.21-7.53.38-11.29.47-4.76.11-9.52.1-14.27-.08-3-.11-6-.28-9-.53 5.287 4.37 10.798 8.462 16.51 12.26 15.946 10.612 33.431 18.707 51.84 24 9.779 2.799 19.773 4.782 29.88 5.93 11.307 1.285 22.708 1.532 34.06.74 30.508-2.163 60.057-11.611 86.16-27.55q5.77-3.53 11.31-7.46c-4.65 1.1-9.22 2.34-13.82 3.4-3.47.79-7 1.48-10.5 1.94-2.616.357-5.25.557-7.89.6z"/></g><g fill="#648dfa"><path d="M5113.342 286.98c-9.78-.516-19.425-1.482-29.077-4.185-8.321-2.411-16.439-5.473-24.317-9.043-7.234-3.336-14.195-7.14-20.793-11.358-8.733-6.175-16.496-13.456-23.046-21.589-9.496-12.589-15.877-27.014-18.691-42.088-3.27-15.077-2.917-30.322.921-44.505 2.598-10.064 6.813-19.425 12.471-27.74 3.465-4.773 12.274-9.207 6.182-17.056-5.951-7.654-13.855-.743-19.921 1.331-5.212 1.765-10.218 3.713-15.016 5.844-10.742 4.863-20.798 11.087-29.911 18.506-8.808 7.213-16.529 15.616-22.933 24.947-5.751 6.996-10.782 14.422-15.072 22.158-4.476 8.209-8.173 16.676-11.143 25.299-3.18 9.623-5.34 19.418-6.463 29.213-1.102 12.11-.366 24.119 2.211 35.577 1.835 10.092 5.012 19.645 9.405 28.383 5.488 9.509 12.085 18.198 19.633 25.878 6.97 6.27 14.389 12.025 22.198 17.218 12.855 8.571 26.707 15.426 41.193 20.431 11.695 4.198 23.795 7.187 36.107 8.92 12.7 1.777 25.605 2.231 38.507 1.319 30.497-2.168 60.034-11.616 86.127-27.55 8.294-5.056 16.129-10.831 23.411-17.255 15.105-14.843 25.787-33.881 30.702-55.123.318-4.581 2.625-9.857-3.831-13.665-3.988-2.219-7.524-1.897-10.799-.594-2.421 1.288-4.579 3.608-6.669 5.401-9.867 7.657-20.35 13.533-31.566 17.358-11.501 3.785-23.73 5.504-36.801 4.891-1.016-.269-2.019-.583-3.019-.923"/><path d="M5131.69 345.37c-3.056.032-6.11-.148-9.14-.54-3.914-.516-7.789-1.291-11.6-2.32-3.14-.83-6.24-1.8-9.33-2.85-3.53-1.2-7-2.49-10.55-3.8-5.52-2.05-11-4.11-16.62-5.85-4.543-1.448-9.181-2.581-13.88-3.39-3.13-.513-6.284-.867-9.45-1.06-2.76-.18-5.52-.25-8.29-.24-4.18 0-8.37.23-12.55.54-3.49.25-7 .59-10.42.94-5.51.57-11 1.17-16.52 1.76-4 .42-7.93.84-11.9 1.23-3.97.39-7.78.75-11.67 1.07-3.69.31-7.38.58-11.07.79-3.69.21-7.53.38-11.29.47-4.76.11-9.52.1-14.27-.08-3-.11-6-.28-9-.53 5.287 4.37 10.798 8.462 16.51 12.26 15.946 10.612 33.431 18.707 51.84 24 9.779 2.799 19.773 4.782 29.88 5.93 11.307 1.285 22.708 1.532 34.06.74 30.508-2.163 60.057-11.611 86.16-27.55q5.77-3.53 11.31-7.46c-4.65 1.1-9.22 2.34-13.82 3.4-3.47.79-7 1.48-10.5 1.94-2.616.357-5.25.557-7.89.6z"/></g><g fill="#648dfa"><path d="M5488.27 282.81c-10.275-.463-20.409-1.402-30.543-4.216-8.543-2.44-16.87-5.581-24.928-9.295-7.446-3.486-14.591-7.501-21.34-11.989-9.175-6.623-17.303-14.453-24.122-23.215-10.028-13.57-16.697-29.133-19.514-45.401-3.198-16.27-2.486-32.74 1.988-48.071 3.08-10.879 7.906-21.009 14.282-30.01 3.827-5.159 13.42-9.953 6.933-18.433-6.334-8.269-14.778-.821-21.236 1.408-5.538 1.896-10.852 3.989-15.943 6.279-11.506 5.239-22.27 11.946-32.018 19.943-9.418 7.775-17.663 16.834-24.486 26.893-5.89 7.518-11.008 15.498-15.324 23.815-4.515 8.828-8.204 17.937-11.1 27.218-3.14 10.36-5.179 20.909-6.099 31.463-.897 13.052.202 25.998 3.28 38.355 2.357 10.883 6.162 21.194 11.279 30.637 6.159 10.271 13.516 19.661 21.899 27.968 7.103 6.421 14.674 12.308 22.649 17.611 12.611 8.409 26.174 15.167 40.351 20.148 11.845 4.309 24.113 7.378 36.599 9.157 12.81 1.816 25.834 2.286 38.86 1.365 30.495-2.169 60.031-11.617 86.123-27.55 8.646-5.27 16.803-11.305 24.369-18.03 16.669-16.106 28.559-36.749 34.227-59.757.617-5.006 3.387-10.754-3.303-14.9-4.097-2.422-7.704-2.091-11.03-.688-2.612 1.39-4.941 3.894-7.196 5.828-10.406 8.261-21.478 14.616-33.341 18.775-12.103 4.126-24.993 6.043-38.796 5.462-.848-.224-1.685-.486-2.52-.77"/><path d="M5505.69 345.37c-3.056.032-6.11-.148-9.14-.54-3.914-.516-7.789-1.291-11.6-2.32-3.14-.83-6.24-1.8-9.33-2.85-3.53-1.2-7-2.49-10.55-3.8-5.52-2.05-11-4.11-16.62-5.85-4.543-1.448-9.181-2.581-13.88-3.39-3.13-.513-6.284-.867-9.45-1.06-2.76-.18-5.52-.25-8.29-.24-4.18 0-8.37.23-12.55.54-3.49.25-7 .59-10.42.94-5.51.57-11 1.17-16.52 1.76-4 .42-7.93.84-11.9 1.23-3.97.39-7.78.75-11.67 1.07-3.69.31-7.38.58-11.07.79-3.69.21-7.53.38-11.29.47-4.76.11-9.52.1-14.27-.08-3-.11-6-.28-9-.53 5.287 4.37 10.798 8.462 16.51 12.26 15.946 10.612 33.431 18.707 51.84 24 9.779 2.799 19.773 4.782 29.88 5.93 11.307 1.285 22.708 1.532 34.06.74 30.508-2.163 60.057-11.611 86.16-27.55q5.77-3.53 11.31-7.46c-4.65 1.1-9.22 2.34-13.82 3.4-3.47.79-7 1.48-10.5 1.94-2.616.357-5.25.557-7.89.6z"/></g><g fill="#648dfa"><path d="M5863.06 279.259c-10.696-.416-21.247-1.334-31.792-4.242-8.732-2.464-17.236-5.673-25.446-9.51-7.627-3.613-14.929-7.809-21.806-12.527-9.553-7.004-17.992-15.301-25.039-24.598-10.482-14.407-17.395-30.936-20.215-48.221-3.137-17.287-2.118-34.799 2.896-51.107 3.49-11.575 8.837-22.359 15.825-31.944 4.135-5.489 14.396-10.589 7.572-19.606-6.66-8.793-15.563-.887-22.355 1.474-5.816 2.007-11.394 4.223-16.734 6.649-12.155 5.559-23.523 12.677-33.811 21.167-9.937 8.253-18.628 17.87-25.809 28.55-6.008 7.961-11.2 16.414-15.537 25.226-4.549 9.355-8.231 19.011-11.065 28.851-3.105 10.988-5.041 22.178-5.789 33.379-.722 13.854.685 27.598 4.191 40.722 2.801 11.555 7.141 22.51 12.874 32.555 6.732 10.919 14.736 20.906 23.83 29.748 7.216 6.549 14.916 12.548 23.032 17.945 12.402 8.272 25.721 14.946 39.633 19.908 11.975 4.403 24.384 7.54 37.019 9.358 12.904 1.849 26.03 2.333 39.159 1.404 30.495-2.169 60.03-11.617 86.121-27.55 8.947-5.452 17.377-11.709 25.185-18.69 18-17.181 30.919-39.191 37.228-63.702.873-5.368 4.036-11.518-2.853-15.952-4.19-2.595-7.858-2.256-11.226-.769-2.776 1.478-5.25 4.138-7.646 6.193-10.865 8.775-22.438 15.538-34.853 19.981-12.614 4.416-26.067 6.501-40.495 5.948-.704-.186-1.4-.404-2.094-.64"/><path d="M5879.69 345.37c-3.056.032-6.11-.148-9.14-.54-3.914-.516-7.789-1.291-11.6-2.32-3.14-.83-6.24-1.8-9.33-2.85-3.53-1.2-7-2.49-10.55-3.8-5.52-2.05-11-4.11-16.62-5.85-4.543-1.448-9.181-2.581-13.88-3.39-3.13-.513-6.284-.867-9.45-1.06-2.76-.18-5.52-.25-8.29-.24-4.18 0-8.37.23-12.55.54-3.49.25-7 .59-10.42.94-5.51.57-11 1.17-16.52 1.76-4 .42-7.93.84-11.9 1.23-3.97.39-7.78.75-11.67 1.07-3.69.31-7.38.58-11.07.79-3.69.21-7.53.38-11.29.47-4.76.11-9.52.1-14.27-.08-3-.11-6-.28-9-.53 5.287 4.37 10.798 8.462 16.51 12.26 15.946 10.612 33.431 18.707 51.84 24 9.779 2.799 19.773 4.782 29.88 5.93 11.307 1.285 22.708 1.532 34.06.74 30.508-2.163 60.057-11.611 86.16-27.55q5.77-3.53 11.31-7.46c-4.65 1.1-9.22 2.34-13.82 3.4-3.47.79-7 1.48-10.5 1.94-2.616.357-5.25.557-7.89.6z"/></g><g fill="#648dfa"><path d="M6237.734 276.232c-11.055-.377-21.961-1.276-32.857-4.264-8.893-2.485-17.549-5.751-25.888-9.694-7.782-3.721-15.218-8.071-22.204-12.984-9.875-7.33-18.579-16.025-25.82-25.778-10.869-15.12-17.99-32.475-20.813-50.627-3.084-18.153-1.805-36.554 3.671-53.695 3.839-12.168 9.63-23.508 17.14-33.592 4.397-5.77 15.228-11.132 8.117-20.606-6.939-9.239-16.232-.943-23.31 1.531-6.052 2.101-11.854 4.422-17.407 6.964-12.71 5.832-24.592 13.301-35.34 22.21-10.38 8.661-19.452 18.754-26.937 29.964-6.108 8.338-11.363 17.193-15.719 26.428-4.579 9.804-8.253 19.926-11.035 30.243-3.076 11.523-4.924 23.261-5.524 35.012-.574 14.538 1.097 28.962 4.966 42.739 3.181 12.13 7.977 23.634 14.235 34.192 7.22 11.471 15.775 21.968 25.475 31.265 7.314 6.658 15.123 12.753 23.36 18.23 12.224 8.155 25.334 14.757 39.02 19.703 12.086 4.483 24.616 7.678 37.377 9.53 12.984 1.877 26.197 2.373 39.415 1.437 30.494-2.17 60.029-11.618 86.12-27.55 9.201-5.608 17.865-12.053 25.88-19.253 19.135-18.097 32.93-41.272 39.786-67.065 1.09-5.676 4.589-12.17-2.47-16.849-4.269-2.743-7.989-2.397-11.393-.837-2.915 1.551-5.513 4.345-8.029 6.503-11.257 9.213-23.256 16.324-36.142 21.01-13.05 4.663-26.983 6.891-41.943 6.362-.582-.154-1.157-.334-1.731-.529"/><path d="M6253.69 345.37c-3.056.032-6.11-.148-9.14-.54-3.914-.516-7.789-1.291-11.6-2.32-3.14-.83-6.24-1.8-9.33-2.85-3.53-1.2-7-2.49-10.55-3.8-5.52-2.05-11-4.11-16.62-5.85-4.543-1.448-9.181-2.581-13.88-3.39-3.13-.513-6.284-.867-9.45-1.06-2.76-.18-5.52-.25-8.29-.24-4.18 0-8.37.23-12.55.54-3.49.25-7 .59-10.42.94-5.51.57-11 1.17-16.52 1.76-4 .42-7.93.84-11.9 1.23-3.97.39-7.78.75-11.67 1.07-3.69.31-7.38.58-11.07.79-3.69.21-7.53.38-11.29.47-4.76.11-9.52.1-14.27-.08-3-.11-6-.28-9-.53 5.287 4.37 10.798 8.462 16.51 12.26 15.946 10.612 33.431 18.707 51.84 24 9.779 2.799 19.773 4.782 29.88 5.93 11.307 1.285 22.708 1.532 34.06.74 30.508-2.163 60.057-11.611 86.16-27.55q5.77-3.53 11.31-7.46c-4.65 1.1-9.22 2.34-13.82 3.4-3.47.79-7 1.48-10.5 1.94-2.616.357-5.25.557-7.89.6z"/></g><g fill="#648dfa"><path d="M6612.309 273.648c-11.362-.344-22.571-1.228-33.766-4.284-9.03-2.502-17.816-5.818-26.266-9.85-7.914-3.814-15.463-8.294-22.543-13.375-10.15-7.608-19.079-16.642-26.487-26.786-11.199-15.728-18.498-33.787-21.323-52.679-3.04-18.893-1.537-38.054 4.331-55.906 4.139-12.673 10.309-24.49 18.264-34.999 4.621-6.009 15.938-11.594 8.583-21.46-7.178-9.619-16.805-.99-24.126 1.58-6.254 2.182-12.248 4.593-17.981 7.233-13.183 6.065-25.505 13.834-36.646 23.101-10.758 9.009-20.154 19.508-27.899 31.17-6.195 8.661-11.504 17.86-15.876 27.455-4.603 10.188-8.272 20.707-11.009 31.432-3.051 11.98-4.823 24.185-5.297 36.407-.447 15.121 1.448 30.126 5.628 44.461 3.504 12.619 8.689 24.593 15.397 35.588 7.636 11.943 16.662 22.874 26.879 32.561 7.396 6.751 15.299 12.927 23.639 18.473 12.073 8.054 25.004 14.596 38.498 19.528 12.179 4.551 24.813 7.796 37.683 9.676 13.052 1.901 26.338 2.408 39.633 1.466 30.493-2.17 60.027-11.618 86.117-27.55 9.42-5.74 18.284-12.347 26.474-19.734 20.105-18.879 34.648-43.049 41.97-69.935 1.277-5.941 5.062-12.727-2.142-17.615-4.336-2.87-8.1-2.517-11.536-.896-3.033 1.615-5.737 4.522-8.356 6.768-11.591 9.587-23.955 16.996-37.242 21.888-13.422 4.874-27.765 7.224-43.179 6.716-.479-.127-.951-.274-1.422-.434"/><path d="M6627.69 345.37c-3.056.032-6.11-.148-9.14-.54-3.914-.516-7.789-1.291-11.6-2.32-3.14-.83-6.24-1.8-9.33-2.85-3.53-1.2-7-2.49-10.55-3.8-5.52-2.05-11-4.11-16.62-5.85-4.543-1.448-9.181-2.581-13.88-3.39-3.13-.513-6.284-.867-9.45-1.06-2.76-.18-5.52-.25-8.29-.24-4.18 0-8.37.23-12.55.54-3.49.25-7 .59-10.42.94-5.51.57-11 1.17-16.52 1.76-4 .42-7.93.84-11.9 1.23-3.97.39-7.78.75-11.67 1.07-3.69.31-7.38.58-11.07.79-3.69.21-7.53.38-11.29.47-4.76.11-9.52.1-14.27-.08-3-.11-6-.28-9-.53 5.287 4.37 10.798 8.462 16.51 12.26 15.946 10.612 33.431 18.707 51.84 24 9.779 2.799 19.773 4.782 29.88 5.93 11.307 1.285 22.708 1.532 34.06.74 30.508-2.163 60.057-11.611 86.16-27.55q5.77-3.53 11.31-7.46c-4.65 1.1-9.22 2.34-13.82 3.4-3.47.79-7 1.48-10.5 1.94-2.616.357-5.25.557-7.89.6z"/></g><g fill="#648dfa"><path d="M6986.801 271.44c-11.624-.316-23.092-1.185-34.543-4.3-9.148-2.517-18.044-5.875-26.589-9.984-8.026-3.893-15.673-8.485-22.832-13.709-10.385-7.845-19.508-17.17-27.057-27.646-11.482-16.249-18.932-34.909-21.759-54.433-3.002-19.525-1.309-39.334 4.896-57.794 4.394-13.105 10.887-25.329 19.223-36.201 4.812-6.214 16.545-11.99 8.98-22.189-7.381-9.945-17.293-1.031-24.823 1.62-6.426 2.252-12.583 4.739-18.472 7.464-13.587 6.264-26.284 14.288-37.761 23.861-11.081 9.306-20.754 20.153-28.721 32.201-6.268 8.937-11.623 18.43-16.009 28.333-4.624 10.515-8.289 21.374-10.986 32.447-3.03 12.37-4.738 24.975-5.105 37.598-.339 15.62 1.748 31.121 6.194 45.933 3.781 13.037 9.299 25.412 16.389 36.78 7.992 12.347 17.42 23.649 28.08 33.668 7.466 6.831 15.449 13.077 23.877 18.681 11.943 7.969 24.722 14.459 38.052 19.378 12.259 4.61 24.981 7.897 37.943 9.802 13.111 1.922 26.46 2.437 39.82 1.49 30.493-2.17 60.026-11.618 86.116-27.55 9.606-5.853 18.64-12.598 26.981-20.144 20.933-19.547 36.115-44.567 43.836-72.389 1.436-6.165 5.465-13.201-1.863-18.268-4.393-2.978-8.195-2.62-11.657-.946-3.135 1.668-5.93 4.673-8.636 6.994-11.876 9.907-24.552 17.569-38.182 22.638-13.74 5.054-28.433 7.509-44.235 7.018-.39-.103-.774-.223-1.157-.353"/><path d="M7001.69 345.37c-3.056.032-6.11-.148-9.14-.54-3.914-.516-7.789-1.291-11.6-2.32-3.14-.83-6.24-1.8-9.33-2.85-3.53-1.2-7-2.49-10.55-3.8-5.52-2.05-11-4.11-16.62-5.85-4.543-1.448-9.181-2.581-13.88-3.39-3.13-.513-6.284-.867-9.45-1.06-2.76-.18-5.52-.25-8.29-.24-4.18 0-8.37.23-12.55.54-3.49.25-7 .59-10.42.94-5.51.57-11 1.17-16.52 1.76-4 .42-7.93.84-11.9 1.23-3.97.39-7.78.75-11.67 1.07-3.69.31-7.38.58-11.07.79-3.69.21-7.53.38-11.29.47-4.76.11-9.52.1-14.27-.08-3-.11-6-.28-9-.53 5.287 4.37 10.798 8.462 16.51 12.26 15.946 10.612 33.431 18.707 51.84 24 9.779 2.799 19.773 4.782 29.88 5.93 11.307 1.285 22.708 1.532 34.06.74 30.508-2.163 60.057-11.611 86.16-27.55q5.77-3.53 11.31-7.46c-4.65 1.1-9.22 2.34-13.82 3.4-3.47.79-7 1.48-10.5 1.94-2.616.357-5.25.557-7.89.6z"/></g><g fill="#648dfa"><path d="M7361.22 269.555c-11.848-.291-23.536-1.149-35.206-4.313-9.247-2.531-18.238-5.924-26.864-10.099-8.123-3.96-15.853-8.648-23.079-13.994-10.586-8.047-19.873-17.62-27.544-28.38-11.723-16.693-19.302-35.867-22.131-55.931-2.969-20.064-1.113-40.427 5.378-59.405 4.612-13.475 11.381-26.045 20.042-37.227 4.976-6.389 17.063-12.327 9.32-22.812-7.555-10.223-17.71-1.066-25.418 1.656-6.573 2.31-12.87 4.863-18.891 7.659-13.932 6.434-26.949 14.677-38.713 24.512-11.356 9.559-21.267 20.703-29.423 33.08-6.331 9.172-11.726 18.915-16.122 29.081-4.643 10.795-8.303 21.945-10.968 33.314-3.011 12.704-4.665 25.649-4.94 38.615-.246 16.046 2.005 31.971 6.677 47.189 4.017 13.395 9.819 26.111 17.236 37.799 8.296 12.691 18.067 24.31 29.104 34.613 7.527 6.898 15.578 13.204 24.081 18.858 11.832 7.896 24.482 14.341 37.671 19.25 12.328 4.661 25.125 7.983 38.166 9.909 13.161 1.94 26.564 2.462 39.979 1.511 30.493-2.17 60.025-11.618 86.115-27.55 9.765-5.95 18.945-12.813 27.414-20.494 21.639-20.118 37.367-45.864 45.429-74.483 1.571-6.357 5.809-13.607-1.624-18.827-4.443-3.07-8.277-2.708-11.762-.989-3.222 1.715-6.093 4.803-8.875 7.188-12.12 10.18-25.061 18.059-38.984 23.279-14.011 5.207-29.003 7.752-45.137 7.275-.313-.082-.623-.179-.931-.284"/><path d="M7375.69 345.37c-3.056.032-6.11-.148-9.14-.54-3.914-.516-7.789-1.291-11.6-2.32-3.14-.83-6.24-1.8-9.33-2.85-3.53-1.2-7-2.49-10.55-3.8-5.52-2.05-11-4.11-16.62-5.85-4.543-1.448-9.181-2.581-13.88-3.39-3.13-.513-6.284-.867-9.45-1.06-2.76-.18-5.52-.25-8.29-.24-4.18 0-8.37.23-12.55.54-3.49.25-7 .59-10.42.94-5.51.57-11 1.17-16.52 1.76-4 .42-7.93.84-11.9 1.23-3.97.39-7.78.75-11.67 1.07-3.69.31-7.38.58-11.07.79-3.69.21-7.53.38-11.29.47-4.76.11-9.52.1-14.27-.08-3-.11-6-.28-9-.53 5.287 4.37 10.798 8.462 16.51 12.26 15.946 10.612 33.431 18.707 51.84 24 9.779 2.799 19.773 4.782 29.88 5.93 11.307 1.285 22.708 1.532 34.06.74 30.508-2.163 60.057-11.611 86.16-27.55q5.77-3.53 11.31-7.46c-4.65 1.1-9.22 2.34-13.82 3.4-3.47.79-7 1.48-10.5 1.94-2.616.357-5.25.557-7.89.6z"/></g><g fill="#648dfa"><path d="M7735.577 267.95c-12.038-.27-23.915-1.118-35.77-4.325-9.333-2.542-18.404-5.965-27.098-10.196-8.205-4.018-16.006-8.787-23.291-14.237-10.756-8.22-20.184-18.003-27.957-29.005-11.929-17.071-19.618-36.683-22.448-57.206-2.942-20.523-.948-41.358 5.788-60.777 4.797-13.789 11.802-26.655 20.739-38.101 5.115-6.538 17.504-12.615 9.609-23.342-7.702-10.46-18.065-1.096-25.924 1.685-6.698 2.361-13.114 4.97-19.248 7.827-14.225 6.578-27.516 15.007-39.523 25.064-11.592 9.776-21.704 21.172-30.022 33.83-6.384 9.373-11.812 19.329-16.218 29.719-4.658 11.033-8.315 22.43-10.952 34.052-2.996 12.987-4.603 26.223-4.8 39.481-.167 16.408 2.223 32.694 7.089 48.258 4.218 13.699 10.261 26.707 17.957 38.667 8.554 12.983 18.618 24.872 29.977 35.417 7.578 6.956 15.687 13.312 24.253 19.009 11.739 7.834 24.277 14.241 37.347 19.142 12.386 4.703 25.248 8.056 38.356 9.999 13.203 1.955 26.652 2.484 40.114 1.529 30.493-2.17 60.025-11.618 86.114-27.55 9.901-6.032 19.204-12.995 27.783-20.793 22.241-20.603 38.434-46.966 46.785-76.265 1.687-6.521 6.103-13.953-1.421-19.303-4.484-3.148-8.346-2.782-11.85-1.025-3.295 1.754-6.233 4.913-9.078 7.353-12.327 10.411-25.495 18.475-39.667 23.823-14.243 5.339-29.489 7.959-45.905 7.496-.249-.066-.494-.143-.739-.226"/><path d="M7749.69 345.37c-3.056.032-6.11-.148-9.14-.54-3.914-.516-7.789-1.291-11.6-2.32-3.14-.83-6.24-1.8-9.33-2.85-3.53-1.2-7-2.49-10.55-3.8-5.52-2.05-11-4.11-16.62-5.85-4.543-1.448-9.181-2.581-13.88-3.39-3.13-.513-6.284-.867-9.45-1.06-2.76-.18-5.52-.25-8.29-.24-4.18 0-8.37.23-12.55.54-3.49.25-7 .59-10.42.94-5.51.57-11 1.17-16.52 1.76-4 .42-7.93.84-11.9 1.23-3.97.39-7.78.75-11.67 1.07-3.69.31-7.38.58-11.07.79-3.69.21-7.53.38-11.29.47-4.76.11-9.52.1-14.27-.08-3-.11-6-.28-9-.53 5.287 4.37 10.798 8.462 16.51 12.26 15.946 10.612 33.431 18.707 51.84 24 9.779 2.799 19.773 4.782 29.88 5.93 11.307 1.285 22.708 1.532 34.06.74 30.508-2.163 60.057-11.611 86.16-27.55q5.77-3.53 11.31-7.46c-4.65 1.1-9.22 2.34-13.82 3.4-3.47.79-7 1.48-10.5 1.94-2.616.357-5.25.557-7.89.6z"/></g><g fill="#648dfa"><path d="M8109.88 266.589c-12.2-.252-24.236-1.092-36.249-4.334-9.405-2.551-18.544-6.001-27.297-10.279-8.274-4.067-16.135-8.905-23.469-14.442-10.9-8.367-20.448-18.329-28.309-29.536-12.102-17.391-19.885-37.374-22.716-58.287-2.918-20.912-.807-42.146 6.136-61.94 4.954-14.056 12.159-27.172 21.33-38.842 5.233-6.664 17.879-12.858 9.854-23.791-7.827-10.661-18.366-1.121-26.353 1.71-6.804 2.403-13.321 5.06-19.55 7.969-14.475 6.701-27.996 15.288-40.211 25.533-11.79 9.959-22.073 21.569-30.528 34.465-6.429 9.542-11.886 19.68-16.301 30.259-4.671 11.235-8.325 22.841-10.938 34.678-2.982 13.228-4.55 26.709-4.68 40.215-.101 16.716 2.407 33.307 7.437 49.165 4.388 13.957 10.636 27.212 18.569 39.402 8.773 13.231 19.084 25.35 30.715 36.099 7.622 7.005 15.781 13.404 24.401 19.137 11.659 7.781 24.103 14.157 37.072 19.05 12.436 4.739 25.351 8.118 38.517 10.077 13.239 1.967 26.726 2.501 40.229 1.543 30.492-2.171 60.024-11.619 86.113-27.55 10.016-6.102 19.424-13.15 28.095-21.046 22.751-21.015 39.338-47.902 47.935-77.777 1.784-6.659 6.352-14.245-1.249-19.705-4.519-3.215-8.404-2.846-11.925-1.056-3.358 1.787-6.351 5.005-9.25 7.492-12.503 10.609-25.863 18.828-40.247 24.286-14.438 5.45-29.9 8.134-46.555 7.681-.194-.051-.385-.111-.576-.176"/><path d="M8123.69 345.37c-3.056.032-6.11-.148-9.14-.54-3.914-.516-7.789-1.291-11.6-2.32-3.14-.83-6.24-1.8-9.33-2.85-3.53-1.2-7-2.49-10.55-3.8-5.52-2.05-11-4.11-16.62-5.85-4.543-1.448-9.181-2.581-13.88-3.39-3.13-.513-6.284-.867-9.45-1.06-2.76-.18-5.52-.25-8.29-.24-4.18 0-8.37.23-12.55.54-3.49.25-7 .59-10.42.94-5.51.57-11 1.17-16.52 1.76-4 .42-7.93.84-11.9 1.23-3.97.39-7.78.75-11.67 1.07-3.69.31-7.38.58-11.07.79-3.69.21-7.53.38-11.29.47-4.76.11-9.52.1-14.27-.08-3-.11-6-.28-9-.53 5.287 4.37 10.798 8.462 16.51 12.26 15.946 10.612 33.431 18.707 51.84 24 9.779 2.799 19.773 4.782 29.88 5.93 11.307 1.285 22.708 1.532 34.06.74 30.508-2.163 60.057-11.611 86.16-27.55q5.77-3.53 11.31-7.46c-4.65 1.1-9.22 2.34-13.82 3.4-3.47.79-7 1.48-10.5 1.94-2.616.357-5.25.557-7.89.6z"/></g><g fill="#648dfa"><path d="M8484.135 265.444c-12.336-.237-24.506-1.07-36.652-4.343-9.466-2.559-18.662-6.03-27.464-10.348-8.333-4.108-16.245-9.004-23.619-14.616-11.023-8.489-20.67-18.602-28.605-29.982-12.248-17.661-20.11-37.955-22.942-59.196-2.899-21.24-.689-42.811 6.429-62.92 5.086-14.28 12.459-27.607 21.828-39.465 5.332-6.77 18.193-13.064 10.06-24.17-7.933-10.829-18.62-1.142-26.714 1.732-6.894 2.439-13.496 5.135-19.806 8.088-14.684 6.804-28.4 15.523-40.789 25.928-11.958 10.113-22.385 21.903-30.955 34.999-6.467 9.686-11.948 19.975-16.369 30.714-4.682 11.406-8.334 23.188-10.927 35.205-2.971 13.43-4.506 27.119-4.58 40.833-.044 16.975 2.563 33.823 7.731 49.928 4.531 14.174 10.952 27.637 19.083 40.021 8.957 13.441 19.478 25.751 31.338 36.673 7.658 7.047 15.858 13.482 24.525 19.245 11.591 7.737 23.957 14.085 36.84 18.972 12.477 4.769 25.439 8.17 38.652 10.142 13.269 1.978 26.79 2.517 40.326 1.556 30.491-2.171 60.023-11.619 86.112-27.55 10.113-6.161 19.609-13.28 28.358-21.259 23.181-21.362 40.099-48.689 48.904-79.049 1.866-6.777 6.56-14.492-1.104-20.045-4.55-3.271-8.455-2.899-11.989-1.082-3.411 1.816-6.45 5.084-9.395 7.61-12.651 10.774-26.172 19.126-40.734 24.675-14.603 5.543-30.247 8.282-47.103 7.838-.148-.039-.294-.084-.439-.134"/><path d="M8497.69 345.37c-3.056.032-6.11-.148-9.14-.54-3.914-.516-7.789-1.291-11.6-2.32-3.14-.83-6.24-1.8-9.33-2.85-3.53-1.2-7-2.49-10.55-3.8-5.52-2.05-11-4.11-16.62-5.85-4.543-1.448-9.181-2.581-13.88-3.39-3.13-.513-6.284-.867-9.45-1.06-2.76-.18-5.52-.25-8.29-.24-4.18 0-8.37.23-12.55.54-3.49.25-7 .59-10.42.94-5.51.57-11 1.17-16.52 1.76-4 .42-7.93.84-11.9 1.23-3.97.39-7.78.75-11.67 1.07-3.69.31-7.38.58-11.07.79-3.69.21-7.53.38-11.29.47-4.76.11-9.52.1-14.27-.08-3-.11-6-.28-9-.53 5.287 4.37 10.798 8.462 16.51 12.26 15.946 10.612 33.431 18.707 51.84 24 9.779 2.799 19.773 4.782 29.88 5.93 11.307 1.285 22.708 1.532 34.06.74 30.508-2.163 60.057-11.611 86.16-27.55q5.77-3.53 11.31-7.46c-4.65 1.1-9.22 2.34-13.82 3.4-3.47.79-7 1.48-10.5 1.94-2.616.357-5.25.557-7.89.6z"/></g><g fill="#648dfa"><path d="M8858.347 264.49c-12.448-.225-24.731-1.052-36.987-4.35-9.517-2.566-18.761-6.055-27.604-10.406-8.382-4.142-16.335-9.087-23.744-14.76-11.124-8.592-20.855-18.831-28.851-30.354-12.371-17.886-20.298-38.441-23.131-59.955-2.882-21.513-.59-43.364 6.673-63.736 5.197-14.466 12.709-27.969 22.243-39.984 5.415-6.859 18.455-13.235 10.232-24.485-8.021-10.97-18.831-1.16-27.016 1.749-6.968 2.469-13.64 5.198-20.017 8.188-14.859 6.89-28.737 15.72-41.271 26.256-12.098 10.242-22.644 22.182-31.311 35.445-6.499 9.805-11.999 20.222-16.427 31.094-4.691 11.547-8.34 23.476-10.917 35.643-2.962 13.599-4.469 27.46-4.497 41.348.003 17.19 2.694 34.253 7.976 50.565 4.65 14.354 11.215 27.99 19.512 40.535 9.111 13.616 19.806 26.087 31.857 37.152 7.689 7.081 15.923 13.547 24.627 19.335 11.536 7.7 23.836 14.026 36.648 18.907 12.512 4.795 25.512 8.214 38.765 10.196 13.294 1.987 26.842 2.53 40.406 1.567 30.492-2.171 60.023-11.619 86.112-27.55 10.193-6.21 19.763-13.389 28.577-21.436 23.539-21.651 40.734-49.346 49.71-80.11 1.935-6.873 6.735-14.697-.983-20.327-4.574-3.318-8.495-2.944-12.042-1.104-3.454 1.839-6.533 5.15-9.515 7.708-12.775 10.912-26.43 19.373-41.14 24.999-14.741 5.621-30.537 8.405-47.56 7.969-.11-.029-.217-.063-.325-.099"/><path d="M8871.69 345.37c-3.056.032-6.11-.148-9.14-.54-3.914-.516-7.789-1.291-11.6-2.32-3.14-.83-6.24-1.8-9.33-2.85-3.53-1.2-7-2.49-10.55-3.8-5.52-2.05-11-4.11-16.62-5.85-4.543-1.448-9.181-2.581-13.88-3.39-3.13-.513-6.284-.867-9.45-1.06-2.76-.18-5.52-.25-8.29-.24-4.18 0-8.37.23-12.55.54-3.49.25-7 .59-10.42.94-5.51.57-11 1.17-16.52 1.76-4 .42-7.93.84-11.9 1.23-3.97.39-7.78.75-11.67 1.07-3.69.31-7.38.58-11.07.79-3.69.21-7.53.38-11.29.47-4.76.11-9.52.1-14.27-.08-3-.11-6-.28-9-.53 5.287 4.37 10.798 8.462 16.51 12.26 15.946 10.612 33.431 18.707 51.84 24 9.779 2.799 19.773 4.782 29.88 5.93 11.307 1.285 22.708 1.532 34.06.74 30.508-2.163 60.057-11.611 86.16-27.55q5.77-3.53 11.31-7.46c-4.65 1.1-9.22 2.34-13.82 3.4-3.47.79-7 1.48-10.5 1.94-2.616.357-5.25.557-7.89.6z"/></g><g fill="#648dfa"><path d="M9232.521 263.706c-12.541-.215-24.915-1.037-37.262-4.356-9.559-2.571-18.842-6.075-27.719-10.453-8.421-4.17-16.409-9.154-23.847-14.879-11.207-8.676-21.007-19.017-29.053-30.659-12.471-18.07-20.452-38.838-23.286-60.577-2.868-21.738-.508-43.819 6.874-64.406 5.287-14.62 12.915-28.267 22.583-40.411 5.483-6.932 18.671-13.375 10.373-24.744-8.093-11.086-19.004-1.174-27.262 1.764-7.03 2.493-13.76 5.25-20.192 8.269-15.002 6.961-29.014 15.882-41.667 26.527-12.212 10.347-22.857 22.41-31.603 35.811-6.525 9.902-12.041 20.423-16.474 31.404-4.698 11.663-8.346 23.713-10.909 36.004-2.955 13.738-4.438 27.741-4.428 41.771.041 17.367 2.8 34.606 8.176 51.087 4.749 14.503 11.432 28.281 19.864 40.959 9.238 13.758 20.075 26.361 32.283 37.544 7.714 7.11 15.977 13.6 24.712 19.409 11.49 7.669 23.736 13.977 36.49 18.854 12.54 4.816 25.571 8.25 38.857 10.241 13.315 1.994 26.885 2.54 40.472 1.575 30.492-2.171 60.023-11.619 86.112-27.55 10.259-6.25 19.889-13.478 28.757-21.582 23.833-21.888 41.254-49.884 50.372-80.98 1.992-6.954 6.878-14.866-.883-20.559-4.595-3.356-8.53-2.981-12.085-1.122-3.491 1.858-6.602 5.203-9.615 7.788-12.876 11.026-26.642 19.577-41.474 25.265-14.854 5.686-30.773 8.507-47.935 8.077-.078-.021-.154-.045-.231-.071"/><path d="M9245.69 345.37c-3.056.032-6.11-.148-9.14-.54-3.914-.516-7.789-1.291-11.6-2.32-3.14-.83-6.24-1.8-9.33-2.85-3.53-1.2-7-2.49-10.55-3.8-5.52-2.05-11-4.11-16.62-5.85-4.543-1.448-9.181-2.581-13.88-3.39-3.13-.513-6.284-.867-9.45-1.06-2.76-.18-5.52-.25-8.29-.24-4.18 0-8.37.23-12.55.54-3.49.25-7 .59-10.42.94-5.51.57-11 1.17-16.52 1.76-4 .42-7.93.84-11.9 1.23-3.97.39-7.78.75-11.67 1.07-3.69.31-7.38.58-11.07.79-3.69.21-7.53.38-11.29.47-4.76.11-9.52.1-14.27-.08-3-.11-6-.28-9-.53 5.287 4.37 10.798 8.462 16.51 12.26 15.946 10.612 33.431 18.707 51.84 24 9.779 2.799 19.773 4.782 29.88 5.93 11.307 1.285 22.708 1.532 34.06.74 30.508-2.163 60.057-11.611 86.16-27.55q5.77-3.53 11.31-7.46c-4.65 1.1-9.22 2.34-13.82 3.4-3.47.79-7 1.48-10.5 1.94-2.616.357-5.25.557-7.89.6z"/></g></svg>