<svg xmlns="http://www.w3.org/2000/svg" viewBox="0 0 11656 812" width="11656" height="812"><path d="M.5 0v812h75l150-135 150-135V270l-150-135L75.5 0H.5z" fill="#8b67fb"/><path d="M.5 266v279l48.89-19.77c89.523-36.207 189.362-37.99 280.12-5l46 16.72V266l-73.17 36.39c-35.954 17.895-75.596 27.148-115.758 27.02-40.161-.129-79.743-9.635-115.582-27.76z" fill="#8b67fb"/><path d="M.5 0v812M376 0v812" fill="none" stroke="#0000ff" stroke-miterlimit="10"/><path d="M376.5-1.12v814.244l75.11.084c49.834-45.037 99.624-90.219 149.452-135.548L751.5 542.021V270.017L601.176 134.295C551.117 89.03 501.074 43.802 451.032-1.387c-24.936 0-49.875.04-74.829.117z" fill="#8b67fb"/><path d="M376.5 266v279l48.89-19.77c89.523-36.207 189.362-37.99 280.12-5l46 16.72V266l-73.17 36.39c-35.954 17.895-75.596 27.148-115.758 27.02-40.161-.129-79.743-9.635-115.582-27.76z" fill="#8b67fb"/><path d="M376.5 0v812M752 0v812" fill="none" stroke="#0000ff" stroke-miterlimit="10"/><path d="M752.5-4.136v820.288l75.406.307c49.385-45.137 98.61-90.809 147.977-137.021L1127.5 542.079V270.062L976.305 132.397C926.087 86.419 875.926 40.576 825.773-5.122c-24.764.002-49.538.15-74.369.432z" fill="#8b67fb"/><path d="M752.5 266v279l48.89-19.77c89.523-36.207 189.362-37.99 280.12-5l46 16.72V266l-73.17 36.39c-35.954 17.895-75.596 27.148-115.758 27.02-40.161-.129-79.743-9.635-115.582-27.76z" fill="#8b67fb"/><path d="M752.5 0v812M1128 0v812" fill="none" stroke="#0000ff" stroke-miterlimit="10"/><path d="M1128.5-8.531v829.094l75.837.634c48.733-45.282 97.135-91.668 145.827-139.169L1503.5 542.162V270.128l-152.464-140.496c-50.451-47.017-100.783-93.757-151.098-140.196-24.514.004-49.047.309-73.699.89z" fill="#8b67fb"/><path d="M1128.5 266v279l48.89-19.77c89.523-36.207 189.362-37.99 280.12-5l46 16.72V266l-73.17 36.39c-35.954 17.895-75.596 27.148-115.758 27.02-40.161-.129-79.743-9.635-115.582-27.76z" fill="#8b67fb"/><path d="M1128.5 0v812M1504 0v812" fill="none" stroke="#0000ff" stroke-miterlimit="10"/><path d="M1504.5-13.787v839.626l76.353 1.024c47.952-45.455 95.369-92.695 143.256-141.738l155.39-142.863V270.207l-153.982-143.883c-50.728-48.26-101.265-96.072-151.774-143.397-24.215.006-48.459.499-72.897 1.438z" fill="#8b67fb"/><path d="M1504.5 266v279l48.89-19.77c89.523-36.207 189.362-37.99 280.12-5l46 16.72V266l-73.17 36.39c-35.954 17.895-75.596 27.148-115.758 27.02-40.161-.129-79.743-9.635-115.582-27.76z" fill="#8b67fb"/><path d="M1504.5 0v812M1880 0v812" fill="none" stroke="#0000ff" stroke-miterlimit="10"/><path d="M1880.5-19.388v850.849l76.903 1.441c47.119-45.641 93.487-93.791 140.516-144.476l157.58-146.058V270.292l-155.6-147.492c-51.023-49.585-101.778-98.539-152.495-146.809-23.895.009-47.832.702-72.042 2.023z" fill="#8b67fb"/><path d="M1880.5 266v279l48.89-19.77c89.523-36.207 189.362-37.99 280.12-5l46 16.72V266l-73.17 36.39c-35.954 17.895-75.596 27.148-115.758 27.02-40.161-.129-79.743-9.635-115.582-27.76z" fill="#8b67fb"/><path d="M1880.5 0v812M2256 0v812" fill="none" stroke="#0000ff" stroke-miterlimit="10"/><path d="M2256.5-24.816V836.91l77.436 1.844c46.313-45.82 91.663-94.852 137.86-147.128l159.703-149.155V270.373l-157.168-150.99c-51.31-50.867-102.277-100.929-153.194-150.115-23.586.012-47.225.899-71.214 2.59z" fill="#8b67fb"/><path d="M2256.5 266v279l48.89-19.77c89.523-36.207 189.362-37.99 280.12-5l46 16.72V266l-73.17 36.39c-35.954 17.895-75.596 27.148-115.758 27.02-40.161-.129-79.743-9.635-115.582-27.76z" fill="#8b67fb"/><path d="M2256.5 0v812M2632 0v812" fill="none" stroke="#0000ff" stroke-miterlimit="10"/><path d="M2632.5-29.556v871.223l77.901 2.196c45.609-45.977 90.071-95.779 135.542-149.444l161.556-151.858V270.444l-158.537-154.043c-51.56-51.988-102.711-103.016-153.804-153.002-23.316.014-46.696 1.07-70.491 3.084z" fill="#8b67fb"/><path d="M2632.5 266v279l48.89-19.77c89.523-36.207 189.362-37.99 280.12-5l46 16.72V266l-73.17 36.39c-35.954 17.895-75.596 27.148-115.758 27.02-40.161-.129-79.743-9.635-115.582-27.76z" fill="#8b67fb"/><path d="M2632.5 0v812M3008 0v812" fill="none" stroke="#0000ff" stroke-miterlimit="10"/><path d="M3008.5-33.088v878.301l78.248 2.459c45.084-46.094 88.884-96.47 133.814-151.171l162.937-153.873v-272.13l-159.557-156.32c-51.748-52.824-103.036-104.572-154.26-155.154-23.114.016-46.3 1.198-69.952 3.453z" fill="#8b67fb"/><path d="M3008.5 266v279l48.89-19.77c89.523-36.207 189.362-37.99 280.12-5l46 16.72V266l-73.17 36.39c-35.954 17.895-75.596 27.148-115.758 27.02-40.161-.129-79.743-9.635-115.582-27.76z" fill="#8b67fb"/><path d="M3008.5 0v812M3384 0v812" fill="none" stroke="#0000ff" stroke-miterlimit="10"/><path d="M3384.5-34.898v881.927l78.426 2.594c44.814-46.154 88.276-96.824 132.928-152.056l163.645-154.904V270.525l-160.08-157.486C3547.576 59.788 3496.217 7.67 3444.927-43.217c-23.011.017-46.098 1.264-69.676 3.642z" fill="#8b67fb"/><path d="M3384.5 266v279l48.89-19.77c89.523-36.207 189.362-37.99 280.12-5l46 16.72V266l-73.17 36.39c-35.954 17.895-75.596 27.148-115.758 27.02-40.161-.129-79.743-9.635-115.582-27.76z" fill="#8b67fb"/><path d="M3384.5 0v812M3760 0v812" fill="none" stroke="#0000ff" stroke-miterlimit="10"/><path d="M3760.5-34.467v881.064l78.383 2.561c44.879-46.139 88.421-96.739 133.14-151.844l163.476-154.66V270.518L3975.543 113.31c-51.82-53.149-103.162-105.179-154.437-155.994-23.035.017-46.146 1.249-69.741 3.598z" fill="#8b67fb"/><path d="M3760.5 266v279l48.89-19.77c89.523-36.207 189.362-37.99 280.12-5l46 16.72V266l-73.17 36.39c-35.954 17.895-75.596 27.148-115.758 27.02-40.161-.129-79.743-9.635-115.582-27.76z" fill="#8b67fb"/><path d="M3760.5 0v812M4136 0v812" fill="none" stroke="#0000ff" stroke-miterlimit="10"/><g><path d="M4136.5-31.279v874.676l78.07 2.324c45.353-46.034 89.492-96.116 134.699-150.286l162.23-152.841V270.47l-159.035-155.153c-51.651-52.396-102.869-103.776-154.026-154.052-23.217.015-46.503 1.133-70.228 3.264z" fill="#8b67fb"/><path d="M4136.5 266v279l48.89-19.77c89.523-36.207 189.362-37.99 280.12-5l46 16.72V266l-73.17 36.39c-35.954 17.895-75.596 27.148-115.758 27.02-40.161-.129-79.743-9.635-115.582-27.76z" fill="#8b67fb"/><path d="M4136.5 0v812M4512 0v812" fill="none" stroke="#0000ff" stroke-miterlimit="10"/></g><g><path d="M4512.5-24.816V836.91l77.436 1.844c46.313-45.82 91.663-94.852 137.86-147.128l159.703-149.155V270.373l-157.168-150.99c-51.31-50.867-102.277-100.929-153.194-150.115-23.586.012-47.225.899-71.214 2.59z" fill="#8b67fb"/><path d="M4512.5 266v279l48.89-19.77c89.523-36.207 189.362-37.99 280.12-5l46 16.72V266l-73.17 36.39c-35.954 17.895-75.596 27.148-115.758 27.02-40.161-.129-79.743-9.635-115.582-27.76z" fill="#8b67fb"/><path d="M4512.5 0v812M4888 0v812" fill="none" stroke="#0000ff" stroke-miterlimit="10"/></g><g><path d="M4888.5-14.562v841.179l76.429 1.082c47.837-45.481 95.108-92.847 142.877-142.117l155.693-143.306V270.219l-154.206-144.383c-50.769-48.443-101.336-96.413-151.874-143.87-24.17.007-48.372.528-72.779 1.52z" fill="#8b67fb"/><path d="M4888.5 266v279l48.89-19.77c89.523-36.207 189.362-37.99 280.12-5l46 16.72V266l-73.17 36.39c-35.954 17.895-75.596 27.148-115.758 27.02-40.161-.129-79.743-9.635-115.582-27.76z" fill="#8b67fb"/><path d="M4888.5 0v812M5264 0v812" fill="none" stroke="#0000ff" stroke-miterlimit="10"/></g><g><path d="M5264.5 0v812h75l150-135 150-135V270l-150-135-150-135h-75z" fill="#8b67fb"/><path d="M5264.5 266v279l48.89-19.77c89.523-36.207 189.362-37.99 280.12-5l46 16.72V266l-73.17 36.39c-35.954 17.895-75.596 27.148-115.758 27.02-40.161-.129-79.743-9.635-115.582-27.76z" fill="#8b67fb"/><path d="M5264.5 0v812M5640 0v812" fill="none" stroke="#0000ff" stroke-miterlimit="10"/></g><g><path d="M5640.5 19.388v773.151l73.097-1.441c52.881-44.359 106.513-86.209 159.484-125.524l142.42-123.942V269.708l-144.4-122.508c-48.977-40.415-98.222-81.461-147.505-123.191-26.105-.009-52.168-.702-77.958-2.023z" fill="#8b67fb"/><path d="M5640.5 266v279l48.89-19.77c89.523-36.207 189.362-37.99 280.12-5l46 16.72V266l-73.17 36.39c-35.954 17.895-75.596 27.148-115.758 27.02-40.161-.129-79.743-9.635-115.582-27.76z" fill="#8b67fb"/><path d="M5640.5 0v812M6016 0v812" fill="none" stroke="#0000ff" stroke-miterlimit="10"/></g><g><path d="M6016.5 44.118v723.598l70.669-3.279c56.556-43.541 114.822-81.374 171.582-113.438l132.751-109.837V269.337l-137.258-106.574c-47.67-34.569-95.952-70.57-144.32-108.128-27.515-.022-54.933-1.598-81.731-4.604z" fill="#8b67fb"/><path d="M6016.5 266v279l48.89-19.77c89.523-36.207 189.362-37.99 280.12-5l46 16.72V266l-73.17 36.39c-35.954 17.895-75.596 27.148-115.758 27.02-40.161-.129-79.743-9.635-115.582-27.76z" fill="#8b67fb"/><path d="M6016.5 0v812M6392 0v812" fill="none" stroke="#0000ff" stroke-miterlimit="10"/></g><g><path d="M6392.5 74.707v662.305l67.667-5.553c61.1-42.53 125.098-75.393 186.545-98.489l120.791-92.388V268.877l-128.422-86.865c-46.055-27.335-93.146-57.098-140.383-89.495-29.258-.037-58.354-2.707-86.398-7.797z" fill="#8b67fb"/><path d="M6392.5 266v279l48.89-19.77c89.523-36.207 189.362-37.99 280.12-5l46 16.72V266l-73.17 36.39c-35.954 17.895-75.596 27.148-115.758 27.02-40.161-.129-79.743-9.635-115.582-27.76z" fill="#8b67fb"/><path d="M6392.5 0v812M6768 0v812" fill="none" stroke="#0000ff" stroke-miterlimit="10"/></g><g><path d="M6768.5 111.673v588.234l64.038-8.3c66.593-41.309 137.517-68.165 204.628-80.423l106.338-71.304V268.321l-117.745-63.046c-44.103-18.596-89.754-40.819-135.624-66.98-31.365-.055-62.487-4.045-92.037-11.655z" fill="#8b67fb"/><path d="M6768.5 266v279l48.89-19.77c89.523-36.207 189.362-37.99 280.12-5l46 16.72V266l-73.17 36.39c-35.954 17.895-75.596 27.148-115.758 27.02-40.161-.129-79.743-9.635-115.582-27.76z" fill="#8b67fb"/><path d="M6768.5 0v812M7144 0v812" fill="none" stroke="#0000ff" stroke-miterlimit="10"/></g><g><path d="M7144.5 155.533v500.349l59.733-11.559c73.11-39.859 152.251-59.59 226.083-58.988l89.19-46.288V267.661l-105.077-34.786c-41.787-8.225-85.731-21.503-129.978-40.266-33.865-.075-67.391-5.633-98.729-16.231z" fill="#8b67fb"/><path d="M7144.5 265.958v279.073l49.043-20.298c30.018-12.317 61.193-20.769 92.8-25.344 31.549-4.627 63.53-5.376 95.218-2.235 31.719 3.171 63.145 10.232 93.551 21.197l45.899 16.371-.421-34.601-.296-34.49-.784-34.222v-25.74l.784-34.222.286-34.481.43-34.609.459-34.636-73.463 36.346c-18.021 8.912-36.974 15.641-56.459 20.093-19.499 4.466-39.531 6.656-59.693 6.475-40.453-.245-80.32-9.965-116.406-28.395l-70.948-36.282" fill="#8b67fb"/><path d="M7144.5 0v812M7520 0v812" fill="none" stroke="#0000ff" stroke-miterlimit="10"/></g><g><path d="M7520.5 206.803V604.42l54.701-15.37c80.727-38.164 169.475-49.565 251.162-33.931l69.145-17.045V266.89l-90.268-1.752c-39.08 3.898-81.027 1.077-123.379-9.037-36.787-.1-73.124-7.491-106.551-21.582z" fill="#8b67fb"/><path d="M7520.5 265.66v279.595l50.138-24.065c31.273-14.087 63.79-24.025 96.77-29.798 32.504-6.203 65.471-8.243 98.124-6.104 32.911 2.371 65.507 8.921 97.007 19.662l45.177 13.881-3.419-39.823-2.414-38.919-6.372-36.746v32.241l6.372-36.746 2.329-38.843 3.499-39.895 3.73-40.103-75.552 36.031c-18.338 8.658-37.676 14.971-57.585 18.841-20.032 3.98-40.634 5.516-61.378 4.507-42.533-1.076-84.437-12.326-122.28-32.927L7520.5 265.66" fill="#8b67fb"/><path d="M7520.5 0v812M7896 0v812" fill="none" stroke="#0000ff" stroke-miterlimit="10"/></g><g><path d="M7896.5 266v279l48.89-19.77c89.523-36.207 189.362-37.99 280.12-5l46 16.72V266l-73.17 36.39c-35.954 17.895-75.596 27.148-115.758 27.02-40.161-.129-79.743-9.635-115.582-27.76z" fill="#8b67fb"/><path d="M7896.5 265.507V545.37l50.701-26.001c31.918-14.997 65.124-25.698 98.811-32.088 32.994-7.013 66.469-9.715 99.617-8.092 33.523 1.961 66.72 8.247 98.784 18.873l44.806 12.602-4.962-42.508-3.501-41.195-9.245-38.044v62.044l9.245-38.044 3.379-41.085 5.076-42.612 5.411-42.913-76.625 35.869c-18.501 8.527-38.037 14.627-58.164 18.197-20.306 3.73-41.202 4.93-62.244 3.495-43.602-1.503-86.553-13.539-125.3-35.256l-75.789-43.105" fill="#8b67fb"/><path d="M7896.5 0v812M8272 0v812" fill="none" stroke="#0000ff" stroke-miterlimit="10"/></g><g><path d="M8272.5 266v279l48.89-19.77c89.523-36.207 189.362-37.99 280.12-5l46 16.72V266l-73.17 36.39c-35.954 17.895-75.596 27.148-115.758 27.02-40.161-.129-79.743-9.635-115.582-27.76z" fill="#8b67fb"/><path d="M8272.5 266.025v278.956l48.797-19.449c29.734-11.919 60.607-20.036 91.905-24.341 31.334-4.272 63.093-4.73 94.563-1.363 31.451 3.35 62.613 10.527 92.772 21.543l46.062 16.932.255-33.424.18-33.492.476-33.654v-38.805l-.476-33.653-.174-33.498-.261-33.419-.278-33.403-72.993 36.417c-17.95 8.969-36.816 15.791-56.205 20.375-19.379 4.576-39.282 6.912-59.313 6.919-39.984-.058-79.393-9.434-115.082-27.374l-70.228-35.267" fill="#8b67fb"/><path d="M8272.5 0v812M8648 0v812" fill="none" stroke="#0000ff" stroke-miterlimit="10"/></g><g><path d="M8648.5 266v279l48.89-19.77c89.523-36.207 189.362-37.99 280.12-5l46 16.72V266l-73.17 36.39c-35.954 17.895-75.596 27.148-115.758 27.02-40.161-.129-79.743-9.635-115.582-27.76z" fill="#8b67fb"/><path d="M8648.5 267.742v275.951l42.492 2.247c22.5-1.723 45.648-1.287 69.037 1.316 25.835 4.805 51.911 11.777 77.824 20.922 24.587 7.951 49.01 18.077 72.864 30.383l50.22 31.271 17.53-3.343 12.374-7.981 32.665-19.118V226.619l-32.665-19.118-11.943-8.368-17.935-2.977-19.12-1.91-60.962 38.232c-16.126 10.432-32.772 19.645-49.715 27.586-16.315 7.375-32.926 13.478-49.611 18.258-28.003 4.727-55.68 4.16-81.244-1.271l-51.811-9.309" fill="#8b67fb"/><path d="M8648.5 0v812M9024 0v812" fill="none" stroke="#0000ff" stroke-miterlimit="10"/></g><g><path d="M9024.5 266v279l48.89-19.77c89.523-36.207 189.362-37.99 280.12-5l46 16.72V266l-73.17 36.39c-35.954 17.895-75.596 27.148-115.758 27.02-40.161-.129-79.743-9.635-115.582-27.76z" fill="#8b67fb"/><path d="M9024.5 269.744v272.448l35.14 27.545c14.066 10.166 28.204 20.577 42.37 31.234 19.424 15.39 38.874 31.025 58.306 46.907 16.584 13.317 33.149 26.881 49.649 40.692l55.07 47.991 37.674 31.735 26.592 21.766 70.2-2.168v-762.2l-70.2-2.167-25.665 20.933-38.545 32.52-41.09 34.814-46.934 40.349c-13.999 12.139-28.057 24.139-42.148 35.995-12.74 10.639-25.514 21.134-38.297 31.479-14.033 10.307-28.029 20.013-41.786 29.168l-30.336 20.959" fill="#8b67fb"/><path d="M9024.5 0v812M9400 0v812" fill="none" stroke="#0000ff" stroke-miterlimit="10"/></g><g><path d="M9400.5 266v279l48.89-19.77c89.523-36.207 189.362-37.99 280.12-5l46 16.72V266l-73.17 36.39c-35.954 17.895-75.596 27.148-115.758 27.02-40.161-.129-79.743-9.635-115.582-27.76z" fill="#8b67fb"/><path d="M9400.5 270.46v-16.04 287.235l32.511 36.593c11.049 14.418 21.965 28.396 32.833 41.933 17.13 19.175 34.211 37.909 51.326 56.201 13.721 15.236 27.475 30.029 41.346 44.378l56.804 53.972 44.878 44.279 31.677 32.404 83.624 3.895V-46.164l-83.624 3.895-30.573 31.412-45.915 45.216-48.948 47.947-41.917 41.107c-13.238 12.748-26.37 25.745-39.441 39.002-11.462 11.806-22.864 23.872-34.251 36.207-9.037 12.302-18.14 25.682-27.674 40.054L9400.5 270.46" fill="#8b67fb"/><path d="M9400.5 0v812M9776 0v812" fill="none" stroke="#0000ff" stroke-miterlimit="10"/></g><g><path d="M9776.5 266v279l48.89-19.77c89.523-36.207 189.362-37.99 280.12-5l46 16.72V266l-73.17 36.39c-35.954 17.895-75.596 27.148-115.758 27.02-40.161-.129-79.743-9.635-115.582-27.76z" fill="#8b67fb"/><path d="M9776.5 270.399v-13.913 285.215l32.735 35.821c11.306 14.056 22.497 27.73 33.646 41.022 17.326 18.853 34.608 37.323 51.92 55.408 13.965 15.073 27.96 29.761 42.054 44.065l56.657 53.462 44.264 43.21 31.243 31.498 82.48 3.377V-40.04l-82.48 3.378-30.154 30.519-45.287 44.134-48.279 46.828-42.344 41.042c-13.303 12.697-26.514 25.609-39.672 38.746-11.571 11.707-23.09 23.639-34.595 35.805-9.463 12.131-18.984 25.199-28.877 39.125l-23.311 30.862" fill="#8b67fb"/><path d="M9776.5 0v812M10152 0v812" fill="none" stroke="#0000ff" stroke-miterlimit="10"/></g><g><path d="M10152.5 266v279l48.89-19.77c89.523-36.207 189.362-37.99 280.12-5l46 16.72V266l-73.17 36.39c-35.954 17.895-75.596 27.148-115.758 27.02-40.161-.129-79.743-9.635-115.582-27.76z" fill="#8b67fb"/><path d="M10152.5 270.088v-3.059 274.905l33.878 31.889c12.617 12.207 25.209 24.331 37.792 36.37 18.322 17.207 36.635 34.33 54.955 51.369 15.209 14.238 30.425 28.392 45.662 42.461l55.903 50.863 41.132 37.757 29.033 26.873 76.645.743V-8.803l-76.645.743-28.021 25.964-42.083 38.615-44.862 41.119-44.526 40.712c-13.633 12.432-27.246 24.911-40.848 37.439-12.127 11.2-24.242 22.449-36.355 33.749-11.634 11.265-23.281 22.735-35.011 34.394l-26.649 26.156" fill="#8b67fb"/><path d="M10152.5 0v812M10528 0v812" fill="none" stroke="#0000ff" stroke-miterlimit="10"/></g><g><path d="M10528.5 266v279l48.89-19.77c89.523-36.207 189.362-37.99 280.12-5l46 16.72V266l-73.17 36.39c-35.954 17.895-75.596 27.148-115.758 27.02-40.161-.129-79.743-9.635-115.582-27.76z" fill="#8b67fb"/><path d="M10528.5 270v272l34.2 30.78c12.987 11.687 25.973 23.373 38.96 35.06 18.603 16.743 37.207 33.487 55.81 50.23 15.56 14.003 31.12 28.007 46.68 42.01l55.69 50.13 40.25 36.22 28.41 25.57h75V0h-75l-27.42 24.68-41.18 37.06-43.9 39.51-45.14 40.62c-13.727 12.357-27.453 24.713-41.18 37.07-12.283 11.057-24.567 22.113-36.85 33.17-12.247 11.02-24.493 22.04-36.74 33.06L10528.5 270" fill="#8b67fb"/><path d="M10528.5 0v812M10904 0v812" fill="none" stroke="#0000ff" stroke-miterlimit="10"/></g><g><path d="M10904.5 266v279l48.89-19.77c89.523-36.207 189.362-37.99 280.12-5l46 16.72V266l-73.17 36.39c-35.954 17.895-75.596 27.148-115.758 27.02-40.161-.129-79.743-9.635-115.582-27.76z" fill="#8b67fb"/><path d="M10904.5 270v272l34.2 30.78c12.987 11.687 25.973 23.373 38.96 35.06 18.603 16.743 37.207 33.487 55.81 50.23 15.56 14.003 31.12 28.007 46.68 42.01l55.69 50.13 40.25 36.22 28.41 25.57h75V0h-75l-27.42 24.68-41.18 37.06-43.9 39.51-45.14 40.62c-13.727 12.357-27.453 24.713-41.18 37.07-12.283 11.057-24.567 22.113-36.85 33.17-12.247 11.02-24.493 22.04-36.74 33.06L10904.5 270" fill="#8b67fb"/><path d="M10904.5 0v812M11280 0v812" fill="none" stroke="#0000ff" stroke-miterlimit="10"/></g><g><path d="M11280.5 266v279l48.89-19.77c89.523-36.207 189.362-37.99 280.12-5l46 16.72V266l-73.17 36.39c-35.954 17.895-75.596 27.148-115.758 27.02-40.161-.129-79.743-9.635-115.582-27.76z" fill="#8b67fb"/><path d="M11280.5 270v272l34.2 30.78c12.987 11.687 25.973 23.373 38.96 35.06 18.603 16.743 37.207 33.487 55.81 50.23 15.56 14.003 31.12 28.007 46.68 42.01l55.69 50.13 40.25 36.22 28.41 25.57h75V0h-75l-27.42 24.68-41.18 37.06-43.9 39.51-45.14 40.62c-13.727 12.357-27.453 24.713-41.18 37.07-12.283 11.057-24.567 22.113-36.85 33.17-12.247 11.02-24.493 22.04-36.74 33.06L11280.5 270" fill="#8b67fb"/><path d="M11280.5 0v812M11656 0v812" fill="none" stroke="#0000ff" stroke-miterlimit="10"/></g></svg>