<svg xmlns="http://www.w3.org/2000/svg" viewBox="0 0 22553 1424" width="22553" height="1424"><path d="M316.2 1077.9c16.3-14.667 32.6-29.333 48.9-44 18.833-16.967 37.667-33.933 56.5-50.9 20.733-18.667 41.467-37.333 62.2-56 19.067-17.167 38.133-34.333 57.2-51.5 10.667-9.6 21.333-19.2 32-28.8 1.723-1.551 3.447-3.102 5.17-4.653l19.536-17.583.264-.237c2.344-2.109 4.687-4.218 7.03-6.327 7.767-6.989 15.533-13.978 23.3-20.967 7.767-6.989 15.533-13.977 23.3-20.966 7.767-6.989 15.533-13.978 23.3-20.967 14.233-12.833 28.467-25.667 42.7-38.5 8.433-7.567 16.867-15.133 25.3-22.7l-31.6-31.6c-4.758-4.767-9.517-9.533-14.275-14.3-4.758-4.767-9.517-9.533-14.275-14.3-9.517-9.533-19.033-19.067-28.55-28.6-8.3-8.333-16.6-16.667-24.9-25-8.3-8.333-16.6-16.667-24.9-25l-24.9-25c-23.733-23.8-47.467-47.6-71.2-71.4-24.9-24.967-49.8-49.933-74.7-74.9-23.033-23.1-46.067-46.2-69.1-69.3-2.683-2.689-5.367-5.378-8.05-8.067-2.683-2.689-5.367-5.377-8.05-8.066-2.683-2.689-5.367-5.378-8.05-8.067-2.683-2.689-5.367-5.378-8.05-8.067-2.683-2.689-5.367-5.377-8.05-8.066-2.683-2.689-5.367-5.378-8.05-8.067M1503.138 1075.911c16.254-14.405 32.525-28.821 48.811-43.249 18.821-16.686 37.662-33.39 56.52-50.115 20.72-18.43 41.452-36.876 62.194-55.339 19.078-16.979 38.163-33.974 57.255-50.986 10.722-9.507 21.447-19.024 32.176-28.555 1.835-1.54 3.667-3.09 5.496-4.65 6.621-5.844 13.236-11.705 19.843-17.58.284-.156.554-.34.806-.547 2.466-2.203 4.919-4.422 7.355-6.655 7.826-7.084 15.634-14.182 23.421-21.292 7.777-7.085 15.537-14.178 23.281-21.278 7.74-7.084 15.466-14.173 23.177-21.265 14.13-12.881 28.248-25.76 42.353-38.635 8.348-7.645 16.684-15.287 25.009-22.923-10.511-10.598-21.036-21.19-31.573-31.773-4.807-4.863-9.628-9.717-14.46-14.559-4.833-4.843-9.677-9.675-14.53-14.493-9.561-9.54-19.129-19.07-28.704-28.588-8.385-8.335-16.779-16.655-25.179-24.958-8.371-8.297-16.745-16.582-25.122-24.855l-24.72-24.82c-23.791-23.628-47.574-47.222-71.342-70.787-24.884-24.736-49.76-49.453-74.625-74.154-22.997-22.857-45.986-45.701-68.964-68.534-2.783-2.561-5.554-5.11-8.311-7.648-2.759-2.536-5.503-5.062-8.232-7.579-2.729-2.513-5.442-5.016-8.134-7.513-2.685-2.549-5.359-5.095-8.023-7.638-2.664-2.501-5.309-5.006-7.937-7.517-2.63-2.513-5.243-5.033-7.841-7.561M2689.918 1068.854c16.09-13.481 32.259-27.007 48.496-40.586 18.777-15.692 37.645-31.462 56.589-47.328 20.673-17.592 41.402-35.253 62.174-52.995 19.117-16.312 38.27-32.696 57.449-49.162 10.917-9.173 21.851-18.399 32.8-27.684 2.231-1.501 4.452-3.05 6.657-4.638 7.004-5.784 13.985-11.646 20.929-17.571.978-.431 1.896-.986 2.729-1.647 2.903-2.535 5.743-5.145 8.511-7.818 8.037-7.422 15.992-14.907 23.851-22.447 7.811-7.425 15.549-14.89 23.212-22.385 7.646-7.419 15.227-14.864 22.739-22.322 13.766-13.052 27.474-26.091 41.125-39.113 8.046-7.926 16.035-15.835 23.975-23.717-10.43-10.828-20.926-21.626-31.478-32.384-4.98-5.207-10.022-10.369-15.116-15.481-5.097-5.115-10.244-10.178-15.434-15.179-9.719-9.562-19.471-19.081-29.25-28.544-8.69-8.342-17.417-16.612-26.173-24.807-8.621-8.168-17.256-16.284-25.907-24.344l-24.083-24.18c-23.994-23.019-47.953-45.881-71.846-68.612-24.828-23.915-49.616-47.747-74.359-71.505-22.868-21.994-45.697-43.93-68.48-65.813-3.136-2.109-6.22-4.162-9.239-6.165-3.028-1.994-5.988-3.942-8.875-5.848-2.894-1.888-5.709-3.731-8.435-5.548-2.687-2.053-5.329-4.09-7.924-6.116-2.595-1.833-5.105-3.686-7.54-5.565-2.438-1.889-4.8-3.811-7.097-5.766M3876.468 1054.428c15.755-11.589 31.715-23.297 47.853-35.141 18.686-13.659 37.61-27.522 56.73-41.632 20.577-15.878 41.299-31.934 62.132-48.204 19.197-14.948 38.488-30.084 57.847-45.432 11.316-8.494 22.675-17.123 34.076-25.906 3.041-1.419 6.056-2.966 9.028-4.615 7.788-5.66 15.516-11.524 23.15-17.55 2.396-.992 4.638-2.307 6.659-3.894 3.795-3.214 7.428-6.625 10.874-10.197 8.467-8.113 16.722-16.388 24.73-24.807 7.88-8.122 15.573-16.346 23.07-24.646 7.454-8.105 14.739-16.278 21.845-24.485 13.022-13.4 25.89-26.767 38.614-40.091 7.427-8.497 14.708-16.952 21.862-25.339-10.266-11.296-20.703-22.516-31.285-33.634-5.332-5.909-10.826-11.7-16.456-17.363-5.638-5.672-11.404-11.207-17.281-16.581-10.043-9.607-20.171-19.104-30.367-28.455-9.313-8.357-18.719-16.525-28.202-24.498-9.134-7.905-18.302-15.674-27.513-23.298l-22.781-22.873c-24.411-21.774-48.729-43.14-72.876-64.166-24.713-22.237-49.324-44.262-73.815-66.091-22.605-20.232-45.108-40.311-67.492-60.254-3.859-1.183-7.582-2.222-11.135-3.133-3.578-.886-6.978-1.652-10.19-2.308-3.23-.613-6.255-1.107-9.05-1.533-2.694-1.039-5.268-2.035-7.723-3.006-2.455-.468-4.688-.988-6.726-1.576-2.047-.613-3.897-1.311-5.578-2.095M5062.694 1029.589c15.178-8.332 30.778-16.908 46.745-25.765 18.53-10.159 37.55-20.738 56.973-31.825 20.412-12.927 41.122-26.221 62.06-39.954 19.335-12.601 38.863-25.587 58.531-39.011 12.004-7.322 24.095-14.926 36.274-22.844 4.434-1.279 8.816-2.821 13.11-4.573 9.138-5.448 18.153-11.316 26.975-17.516 4.837-1.957 9.359-4.58 13.426-7.764 5.331-4.384 10.329-9.171 14.942-14.292 9.209-9.303 17.98-18.939 26.243-28.872 8-9.321 15.615-18.852 22.827-28.54 7.124-9.286 13.898-18.711 20.304-28.207 11.74-14.001 23.165-27.932 34.292-41.776 6.361-9.481 12.423-18.876 18.223-28.13-9.984-12.104-20.319-24.05-30.952-35.786-5.939-7.12-12.211-13.995-18.763-20.606-6.57-6.63-13.403-12.979-20.463-18.995-10.6-9.685-21.375-19.143-32.29-28.302-10.384-8.38-20.962-16.375-31.696-23.967-10.017-7.451-20.104-14.623-30.278-21.496l-20.538-20.621c-25.129-19.631-50.065-38.421-74.651-56.511-24.515-19.349-48.819-38.261-72.878-56.77-22.152-17.197-44.094-34.078-65.79-50.679-5.103.409-9.927 1.117-14.4 2.087-4.525 1.022-8.683 2.29-12.455 3.786-3.807 1.583-7.194 3.412-10.108 5.381-2.704.707-5.163 1.502-7.376 2.35-2.213 1.881-3.971 3.657-5.326 5.292-1.373 1.584-2.342 2.992-2.961 4.225M6248.559 993.191c14.334-3.559 29.405-7.547 45.122-12.027 18.301-5.029 37.462-10.795 57.329-17.452 20.17-8.603 40.863-17.851 61.954-27.866 19.538-9.161 39.413-18.997 59.535-29.601 13.011-5.607 26.176-11.706 39.494-18.357 6.477-1.075 12.861-2.61 19.092-4.514 11.116-5.136 22.016-11.009 32.579-17.466 8.415-3.372 16.278-7.911 23.341-13.433 7.582-6.099 14.581-12.904 20.904-20.293 10.295-11.047 19.823-22.677 28.46-34.829 8.176-11.077 15.676-22.523 22.47-34.245 6.641-11.016 12.667-22.278 18.048-33.662 9.862-14.881 19.171-29.639 27.958-44.244 4.798-10.924 9.075-21.695 12.891-32.221-9.571-13.287-19.756-26.298-30.463-38.941-6.829-8.892-14.242-17.355-22.146-25.357-7.935-8.032-16.33-15.573-25.125-22.531-11.416-9.8-23.138-19.2-35.107-28.078-11.955-8.415-24.248-16.155-36.817-23.188-11.31-6.787-22.743-13.083-34.329-18.857l-17.253-17.321c-26.18-16.49-52.022-31.506-77.25-45.294-24.225-15.117-48.08-29.467-71.506-43.11-21.487-12.75-42.606-24.946-63.295-36.651-6.927 2.744-13.363 6.01-19.184 9.737-5.913 3.819-11.182 8.068-15.774 12.716-4.655 4.802-8.572 10.034-11.659 15.512-2.72 3.266-5.009 6.686-6.868 10.198-1.859 5.324-2.92 10.463-3.274 15.358-.385 4.801-.063 9.296.873 13.484M7434.268 951.79c13.373 1.871 27.844 3.101 43.275 3.6 18.041.805 37.362.513 57.735-1.105 19.895-3.684 40.567-8.329 61.834-14.116 19.768-5.248 40.039-11.501 60.675-18.898 14.157-3.656 28.543-8.043 43.157-13.254 8.8-.841 17.463-2.369 25.897-4.445 13.366-4.782 26.411-10.661 38.953-17.408 12.485-4.981 24.147-11.7 34.62-19.882 10.143-8.049 19.417-17.15 27.684-27.12 11.532-13.029 21.92-26.928 30.982-41.604 8.377-13.075 15.747-26.699 22.066-40.735 6.09-12.984 11.265-26.334 15.481-39.866 7.725-15.882 14.627-31.581 20.752-47.051 3.022-12.566 5.267-24.903 6.827-36.875-9.101-14.633-19.116-28.855-29.909-42.528-7.841-10.909-16.55-21.178-25.992-30.761-9.487-9.629-19.66-18.526-30.427-26.554-12.344-9.93-25.145-19.265-38.312-27.823-13.742-8.455-27.986-15.905-42.642-22.302-12.781-6.032-25.745-11.332-38.937-15.855l-13.515-13.569c-27.376-12.917-54.249-23.64-80.208-32.534-23.894-10.304-47.239-19.465-69.944-27.574-20.732-7.691-40.915-14.558-60.458-20.694-9.001 5.399-17.271 11.576-24.626 18.438-7.492 7-14.024 14.64-19.55 22.874-5.617 8.463-10.137 17.567-13.422 27.036-2.737 6.176-4.833 12.582-6.29 19.124-1.456 9.24-1.724 18.206-.94 26.806.739 8.463 2.529 16.469 5.234 24.018M8620.123 915.071c12.521 6.685 26.46 12.545 41.638 17.459 17.81 5.98 37.273 10.543 58.094 13.394 19.651.678 40.305.117 61.728-1.921 19.972-1.777 40.593-4.853 61.687-9.405 15.173-1.925 30.641-4.795 46.405-8.727 10.861-.635 21.544-2.156 31.932-4.385 15.361-4.467 30.309-10.351 44.607-17.357 16.094-6.409 31.126-15.061 44.623-25.602 12.414-9.779 23.705-20.916 33.698-33.174 12.628-14.788 23.779-30.699 33.219-47.613 8.553-14.847 15.808-30.404 21.706-46.491 5.601-14.73 10.023-29.931 13.204-45.369 5.83-16.77 10.597-33.303 14.361-49.541 1.447-14.021 1.891-27.748 1.449-41.002-8.684-15.827-18.548-31.123-29.416-45.71-8.739-12.698-18.599-24.569-29.404-35.554-10.864-11.045-22.613-21.144-35.13-30.123-13.168-10.045-26.925-19.322-41.155-27.596-15.326-8.491-31.301-15.683-47.807-21.517-14.086-5.361-28.408-9.778-43.025-13.192l-10.199-10.24c-28.437-9.749-56.225-16.664-82.831-21.217-23.601-6.035-46.494-10.594-68.56-13.795-20.062-3.204-39.415-5.345-57.942-6.541-10.84 7.754-20.736 16.512-29.451 26.156-8.893 9.821-16.545 20.468-22.899 31.883-6.471 11.71-11.526 24.247-14.987 37.256-2.752 8.758-4.678 17.811-5.777 27.041-1.099 12.714-.663 25.074 1.131 36.961 1.735 11.71 4.827 22.829 9.101 33.359M9806.221 886.154c11.85 10.478 25.37 19.982 40.349 28.374 17.628 10.055 37.203 18.441 58.377 24.811 19.458 4.114 40.099 6.768 61.644 7.684 20.132.956 41.03.382 62.483-1.93 15.974-.562 32.295-2.236 48.964-5.162 12.483-.473 24.758-1.988 36.685-4.338 16.932-4.22 33.378-10.108 49.059-17.317 18.937-7.532 36.623-17.707 52.501-30.106 14.201-11.141 27.082-23.881 38.433-37.942 13.491-16.173 25.244-33.668 34.98-52.345 8.694-16.243 15.858-33.32 21.423-51.023 5.218-16.105 9.045-32.765 11.412-49.704 4.338-17.468 7.424-34.658 9.328-51.5.207-15.168-.769-29.989-2.787-44.253-8.355-16.767-18.1-32.909-29.028-48.216-9.445-14.106-20.211-27.238-32.09-39.328-11.948-12.16-24.939-23.207-38.834-32.933-13.816-10.135-28.327-19.368-43.393-27.418-16.574-8.518-33.912-15.508-51.876-20.898-15.113-4.834-30.504-8.555-46.243-11.095l-7.589-7.619c-29.272-7.254-57.779-11.17-84.896-12.305-23.371-2.673-45.907-3.608-67.47-2.943-19.534.329-38.233 1.91-55.96 4.603-12.289 9.609-23.466 20.4-33.252 32.234-9.995 12.042-18.53 25.058-25.535 38.977-7.145 14.267-12.62 29.508-16.219 45.305-2.765 10.79-4.556 21.929-5.373 33.276-.818 15.449.172 30.481 2.76 44.957 2.52 14.267 6.638 27.839 12.147 40.715M10992.53 864c11.337 13.383 24.534 25.68 39.361 36.736 17.489 13.177 37.149 24.492 58.594 33.559 19.311 6.746 39.941 11.863 61.579 15.041 20.256 3.05 41.365 4.393 63.095 3.798 16.586.482 33.561-.277 50.923-2.431 13.727-.348 27.22-1.86 40.326-4.302 18.137-4.03 35.73-9.921 52.47-17.286 21.115-8.394 40.834-19.735 58.537-33.557 15.571-12.185 29.67-26.153 42.062-41.594 14.152-17.235 26.365-35.944 36.329-55.971 8.801-17.312 15.895-35.555 21.206-54.497 4.923-17.157 8.295-34.935 10.038-53.023 3.194-18.003 4.993-35.697 5.473-53.003-.744-16.046-2.807-31.704-6.033-46.742-8.103-17.488-17.757-34.277-28.73-50.136-9.987-15.185-21.448-29.284-34.149-42.22-12.779-13.014-26.721-24.786-41.672-35.085-14.312-10.206-29.4-19.403-45.108-27.282-17.529-8.54-35.911-15.374-54.992-20.424-15.9-4.43-32.111-7.618-48.709-9.489l-5.589-5.611c-29.912-5.341-58.971-6.96-86.478-5.477-23.194-.097-45.457 1.745-66.635 5.371-19.129 3.036-37.328 7.468-54.441 13.142-13.399 11.03-25.558 23.378-36.165 36.89-10.839 13.744-20.05 28.574-27.555 44.413-7.66 16.226-13.458 33.538-17.163 51.47-2.774 12.349-4.462 25.085-5.064 38.054-.602 17.544.812 34.624 4.01 51.083 3.121 16.226 8.025 31.676 14.48 46.351M12179.001 847.019c10.942 15.61 23.893 30.047 38.603 43.145 17.382 15.57 37.109 29.131 58.76 40.264 19.199 8.763 39.821 15.769 61.53 20.681 20.351 4.655 41.622 7.468 63.563 8.188 17.056 1.283 34.532 1.226 52.426-.338 14.679-.252 29.107-1.761 43.117-4.273 19.059-3.885 37.532-9.779 55.084-17.263 22.784-9.054 44.062-21.289 63.163-36.203 16.622-12.984 31.653-27.893 44.843-44.393 14.659-18.049 27.225-37.688 37.364-58.75 8.882-18.132 15.924-37.268 21.039-57.158 4.698-17.965 7.72-36.599 8.985-55.568 2.319-18.415 3.13-36.494 2.518-54.155-1.473-16.719-4.368-33.02-8.52-48.651-7.91-18.039-17.495-35.326-28.503-51.607-10.402-16.012-22.394-30.853-35.726-44.437-13.416-13.668-28.087-25.997-43.847-36.735-14.693-10.259-30.223-19.43-46.423-27.177-18.261-8.557-37.444-15.271-57.38-20.061-16.504-4.12-33.343-6.9-50.6-8.257l-4.056-4.072c-30.402-3.876-59.884-3.734-87.691-.244-23.058 1.878-45.112 5.848-65.994 11.743-18.82 5.112-36.635 11.73-53.278 19.687-14.25 12.119-27.16 25.662-38.396 40.459-11.487 15.049-21.217 31.27-29.104 48.58-8.055 17.728-14.101 36.627-17.886 56.197-2.781 13.542-4.39 27.503-4.827 41.715-.437 19.151 1.302 37.799 4.967 55.778 3.581 17.728 9.088 34.619 16.269 50.672M13365.594 833.964c10.639 17.322 23.401 33.405 38.021 48.073 17.3 17.41 37.077 32.697 58.888 45.419 19.112 10.314 39.727 18.771 61.492 25.017 20.423 5.888 41.819 9.831 63.922 11.562 17.418 1.898 35.279 2.381 53.581 1.272 15.412-.179 30.559-1.685 45.263-4.252 19.768-3.773 38.918-9.669 57.094-17.245 24.068-9.561 46.543-22.483 66.719-38.236 17.429-13.599 33.178-29.232 46.981-46.546 15.049-18.674 27.887-39.028 38.159-60.886 8.946-18.762 15.947-38.585 20.912-59.205 4.524-18.585 7.279-37.878 8.176-57.525 1.644-18.729 1.697-37.105.246-55.039-2.033-17.237-5.57-34.031-10.433-50.119-7.762-18.464-17.293-36.132-28.327-52.738-10.721-16.648-23.123-32.058-36.94-46.141-13.905-14.172-29.137-26.928-45.518-38.004-14.986-10.3-30.856-19.45-47.434-27.096-18.825-8.569-38.623-15.193-59.217-19.782-16.968-3.881-34.289-6.348-52.053-7.31l-2.877-2.889c-30.78-2.75-60.586-1.254-88.624 3.78-22.954 3.395-44.847 9.001-65.502 16.642-18.581 6.707-36.101 15.005-52.383 24.719-14.904 12.956-28.392 27.416-40.112 43.203-11.985 16.052-22.113 33.342-30.294 51.782-8.359 18.882-14.595 39.003-18.443 59.831-2.786 14.46-4.335 29.362-4.645 44.529-.31 20.386 1.68 40.241 5.704 59.389 3.935 18.882 9.905 36.88 17.644 53.993M14552.281 823.95c10.407 18.635 23.024 35.98 37.575 51.853 17.237 18.821 37.053 35.432 58.986 49.372 19.045 11.504 39.656 21.075 61.463 28.343 20.479 6.835 41.97 11.644 64.198 14.152 17.695 2.37 35.851 3.267 54.467 2.506 15.974-.123 31.672-1.627 46.909-4.236 20.312-3.687 39.98-9.584 58.636-17.23 25.052-9.951 48.446-23.4 69.447-39.797 18.049-14.07 34.348-30.259 48.622-48.197 15.347-19.153 28.393-40.056 38.769-62.524 8.994-19.246 15.963-39.596 20.813-60.775 4.391-19.061 6.94-38.859 7.555-59.026 1.128-18.971.598-37.575-1.497-55.718-2.463-17.634-6.49-34.807-11.899-51.244-7.649-18.79-17.138-36.751-28.194-53.607-10.965-17.135-23.681-32.982-37.869-47.448-14.281-14.557-29.943-27.641-46.802-38.976-15.21-10.332-31.341-19.466-48.208-27.035-19.258-8.579-39.528-15.132-60.626-19.567-17.324-3.699-35.016-5.925-53.168-6.585l-1.973-1.981c-31.069-1.885-61.125.649-89.339 6.866-22.875 4.56-44.644 11.421-65.124 20.401-18.399 7.93-35.693 17.517-51.698 28.578-15.405 13.599-29.337 28.763-41.428 45.308-12.366 16.821-22.8 34.932-31.207 54.239-8.592 19.768-14.974 40.825-18.869 62.618-2.791 15.164-4.293 30.788-4.505 46.689-.213 21.333 1.969 42.114 6.268 62.158 4.207 19.768 10.532 38.615 18.698 56.541" fill="none" stroke="#8b67fb" stroke-width="500" stroke-linecap="round"/><path d="M15739.044 816.349c10.231 19.631 22.738 37.935 37.236 54.722 17.189 19.892 37.034 37.508 59.06 52.373 18.995 12.408 39.602 22.823 61.442 30.868 20.52 7.553 42.084 13.02 64.407 16.116 17.906 2.729 36.285 3.94 55.139 3.444 16.401-.08 32.517-1.583 48.158-4.223 20.726-3.622 40.788-9.52 59.807-17.22 25.799-10.246 49.891-24.096 71.518-40.981 18.519-14.429 35.236-31.039 49.866-49.45 15.575-19.518 28.779-40.837 39.232-63.769 9.031-19.612 15.976-40.362 20.74-61.966 4.289-19.423 6.682-39.604 7.083-60.165.735-19.155-.236-37.931-2.82-56.233-2.789-17.936-7.189-35.397-13.013-52.099-7.562-19.037-17.02-37.22-28.091-54.265-11.152-17.506-24.105-33.684-38.576-48.44-14.566-14.851-30.554-28.184-47.775-39.716-15.381-10.355-31.709-19.477-48.797-26.987-19.585-8.587-40.214-15.087-61.695-19.405-17.594-3.56-35.567-5.603-54.014-6.034l-1.287-1.291c-31.288-1.23-61.533 2.093-89.882 9.208-22.814 5.444-44.489 13.258-64.837 23.253-18.26 8.859-35.382 19.425-51.177 31.508-15.786 14.087-30.055 29.785-42.427 46.906-12.657 17.405-23.322 36.138-31.901 56.104-8.768 20.44-15.261 42.207-19.193 64.734-2.794 15.698-4.26 31.87-4.398 48.327-.139 22.053 2.188 43.536 6.696 64.26 4.414 20.44 11.008 39.932 19.499 58.475" fill="none" stroke="#8566f0" stroke-width="500" stroke-linecap="round"/><path d="M16925.868 810.707c10.1 20.372 22.525 39.387 36.984 56.852 17.154 20.687 37.021 39.048 59.116 54.601 18.957 13.077 39.561 24.12 61.425 32.741 20.552 8.087 42.17 14.042 64.563 17.575 18.062 2.994 36.608 4.439 55.638 4.139 16.717-.048 33.144-1.55 49.086-4.214 21.032-3.574 41.386-9.473 60.674-17.212 26.354-10.466 50.964-24.612 73.055-41.859 18.868-14.695 35.895-31.618 50.791-50.381 15.743-19.788 29.064-41.416 39.575-64.692 9.059-19.884 15.986-40.931 20.685-62.85 4.214-19.691 6.491-40.157 6.733-61.01.445-19.292-.855-38.197-3.802-56.617-3.03-18.159-7.708-35.833-13.839-52.732-7.498-19.221-16.933-37.569-28.015-54.754-11.29-17.781-24.42-34.206-39.101-49.177-14.777-15.068-31.007-28.586-48.497-40.264-15.507-10.373-31.983-19.486-49.234-26.953-19.828-8.591-40.723-15.052-62.489-19.284-17.794-3.457-35.976-5.364-54.642-5.624l-.777-.78c-31.451-.743-61.837 3.165-90.285 10.947-22.769 6.099-44.375 14.621-64.625 25.37-18.157 9.548-35.151 20.84-50.789 33.683-16.069 14.447-30.588 30.542-43.169 48.09-12.872 17.839-23.709 37.034-32.415 57.489-8.9 20.939-15.475 43.234-19.434 66.304-2.796 16.095-4.236 32.674-4.32 49.544-.083 22.586 2.352 44.59 7.015 65.82 4.566 20.939 11.361 40.909 20.093 59.91" fill="none" stroke="#6c5fc0" stroke-width="500" stroke-linecap="round"/><path d="M18112.743 806.69c10.007 20.898 22.373 40.419 36.805 58.367 17.129 21.254 37.011 40.147 59.155 56.188 18.93 13.555 39.533 25.044 61.413 34.076 20.575 8.466 42.231 14.769 64.674 18.613 18.173 3.184 36.837 4.794 55.994 4.634 16.942-.025 33.59-1.526 49.745-4.207 21.251-3.539 41.813-9.439 61.294-17.207 26.748-10.621 51.727-24.979 74.149-42.485 19.116-14.883 36.364-32.029 51.449-51.043 15.863-19.98 29.267-41.829 39.82-65.349 9.078-20.078 15.992-41.337 20.645-63.48 4.161-19.882 6.355-40.551 6.485-61.612.236-19.389-1.297-38.385-4.502-56.889-3.203-18.318-8.078-36.145-14.427-53.184-7.453-19.351-16.871-37.817-27.962-55.103-11.388-17.976-24.644-34.576-39.474-49.701-14.927-15.223-31.33-28.872-49.012-40.654-15.597-10.385-32.177-19.492-49.544-26.928-20.002-8.595-41.086-15.028-63.055-19.198-17.937-3.384-36.267-5.194-55.089-5.333l-.414-.416c-31.568-.396-62.053 3.928-90.572 12.186-22.737 6.566-44.294 15.591-64.473 26.877-18.084 10.039-34.988 21.849-50.515 35.231-16.27 14.706-30.967 31.083-43.697 48.936-13.025 18.147-23.985 37.671-32.781 58.474-8.993 21.294-15.627 43.964-19.605 67.422-2.798 16.377-4.219 33.246-4.264 50.41-.044 22.966 2.468 45.342 7.242 66.931 4.675 21.294 11.612 41.605 20.516 60.933" fill="none" stroke="#575a98" stroke-width="500" stroke-linecap="round"/><path d="M19299.661 804.041c9.945 21.245 22.273 41.101 36.686 59.367 17.112 21.627 37.005 40.87 59.181 57.234 18.913 13.869 39.514 25.654 61.406 34.955 20.589 8.717 42.27 15.249 64.746 19.299 18.247 3.308 36.989 5.028 56.229 4.96 17.091-.011 33.884-1.511 50.181-4.203 21.394-3.517 42.093-9.416 61.701-17.203 27.009-10.724 52.231-25.222 74.871-42.897 19.28-15.009 36.673-32.301 51.882-51.48 15.942-20.107 29.402-42.101 39.982-65.783 9.09-20.206 15.997-41.604 20.619-63.895 4.126-20.008 6.266-40.81 6.32-62.009.1-19.454-1.587-38.509-4.962-57.069-3.317-18.423-8.322-36.35-14.816-53.482-7.422-19.437-16.83-37.98-27.926-55.332-11.452-18.105-24.792-34.82-39.719-50.046-15.028-15.325-31.544-29.062-49.352-40.912-15.656-10.394-32.306-19.497-49.75-26.912-20.116-8.598-41.324-15.011-63.427-19.141-18.031-3.336-36.459-5.082-55.384-5.141l-.175-.176c-31.644-.167-62.195 4.431-90.761 13.002-22.716 6.874-44.24 16.231-64.373 27.872-18.036 10.363-34.88 22.513-50.333 36.252-16.403 14.875-31.217 31.439-44.045 49.492-13.126 18.351-24.167 38.092-33.023 59.124-9.055 21.528-15.727 44.446-19.718 68.159-2.799 16.564-4.208 33.624-4.227 50.982-.018 23.216 2.544 45.837 7.391 67.663 4.747 21.528 11.778 42.064 20.796 61.606" fill="none" stroke="#4d5785" stroke-width="500" stroke-linecap="round"/><path d="M20486.614 802.563c9.911 21.439 22.218 41.481 36.621 59.925 17.103 21.835 37.001 41.274 59.196 57.817 18.903 14.045 39.503 25.994 61.401 35.447 20.597 8.856 42.293 15.516 64.787 19.68 18.287 3.378 37.074 5.159 56.359 5.143 17.174-.003 34.049-1.503 50.424-4.201 21.475-3.504 42.251-9.404 61.929-17.201 27.154-10.782 52.512-25.357 75.274-43.127 19.371-15.079 36.845-32.453 52.124-51.724 15.986-20.178 29.476-42.253 40.071-66.024 9.098-20.278 16-41.754 20.605-64.128 4.106-20.078 6.216-40.954 6.229-62.23.024-19.489-1.749-38.579-5.22-57.169-3.38-18.482-8.457-36.464-15.032-53.648-7.405-19.485-16.807-38.071-27.906-55.46-11.489-18.177-24.874-34.957-39.857-50.239-15.083-15.382-31.663-29.167-49.541-41.055-15.689-10.399-32.377-19.499-49.864-26.903-20.18-8.6-41.458-15.003-63.635-19.11-18.083-3.308-36.566-5.02-55.548-5.034l-.042-.042c-31.687-.04-62.275 4.712-90.867 13.458-22.704 7.046-44.209 16.588-64.317 28.426-18.009 10.543-34.819 22.884-50.232 36.821-16.477 14.971-31.356 31.638-44.239 49.803-13.182 18.464-24.268 38.327-33.158 59.486-9.089 21.659-15.782 44.716-19.78 68.571-2.8 16.668-4.202 33.835-4.207 51.301-.004 23.356 2.587 46.113 7.474 68.072 4.788 21.659 11.871 42.319 20.951 61.982" fill="none" stroke="#49567d" stroke-width="500" stroke-linecap="round"/><path d="M21673.6 802.1c9.9 21.5 22.2 41.6 36.6 60.1 17.1 21.9 37 41.4 59.2 58 18.9 14.1 39.5 26.1 61.4 35.6 20.6 8.9 42.3 15.6 64.8 19.8 18.3 3.4 37.1 5.2 56.4 5.2 17.2 0 34.1-1.5 50.5-4.2 21.5-3.5 42.3-9.4 62-17.2 27.2-10.8 52.6-25.4 75.4-43.2 19.4-15.1 36.9-32.5 52.2-51.8 16-20.2 29.5-42.3 40.1-66.1 9.1-20.3 16-41.8 20.6-64.2 4.1-20.1 6.2-41 6.2-62.3 0-19.5-1.8-38.6-5.3-57.2-3.4-18.5-8.5-36.5-15.1-53.7-7.4-19.5-16.8-38.1-27.9-55.5-11.5-18.2-24.9-35-39.9-50.3-15.1-15.4-31.7-29.2-49.6-41.1-15.7-10.4-32.4-19.5-49.9-26.9-20.2-8.6-41.5-15-63.7-19.1-18.1-3.3-36.6-5-55.6-5-31.7 0-62.3 4.8-90.9 13.6-22.7 7.1-44.2 16.7-64.3 28.6-18 10.6-34.8 23-50.2 37-16.5 15-31.4 31.7-44.3 49.9-13.2 18.5-24.3 38.4-33.2 59.6-9.1 21.7-15.8 44.8-19.8 68.7-2.8 16.7-4.2 33.9-4.2 51.4 0 23.4 2.6 46.2 7.5 68.2 4.8 21.7 11.9 42.4 21 62.1" fill="none" stroke="#48567b" stroke-width="500" stroke-linecap="round"/></svg>