<svg xmlns="http://www.w3.org/2000/svg" viewBox="0 0 26106 1182" width="26106" height="1182"><path d="M902.396 402.604C960.323 460.531 992.9 539.18 992.9 621.1c0 81.92-32.577 160.569-90.504 218.496C844.469 897.523 765.82 930.1 683.9 930.1c-81.92 0-160.569-32.577-218.496-90.504C407.477 781.669 374.9 703.02 374.9 621.1c0-81.92 32.577-160.569 90.504-218.496C523.331 344.677 601.98 312.1 683.9 312.1c81.92 0 160.569 32.577 218.496 90.504M2275.33 402.233c58.279 58.255 91.065 137.349 91.089 219.732.024 82.384-32.713 161.478-90.944 219.733-58.23 58.254-137.3 91.016-219.66 91.016-82.359 0-161.429-32.762-219.659-91.016-58.231-58.255-90.968-137.349-90.944-219.733.024-82.383 32.809-161.477 91.088-219.732 58.279-58.255 137.397-91.016 219.805-91.016h.073c82.407 0 161.525 32.761 219.804 91.016M3646.521 401.254c59.207 59.119 92.542 139.386 92.63 222.992.088 83.606-33.072 163.873-92.103 222.992-59.031 59.119-139.21 92.366-222.728 92.366s-163.698-33.247-222.729-92.366c-59.031-59.119-92.19-139.386-92.103-222.992.088-83.606 33.423-163.873 92.63-222.992 59.207-59.119 139.562-92.366 223.255-92.366h.264c83.693 0 164.048 33.247 223.255 92.366M5016.55 399.871c60.518 60.34 94.631 142.267 94.808 227.6.178 85.333-33.578 167.259-93.741 227.6-60.163 60.34-141.911 94.275-227.067 94.275s-166.904-33.935-227.067-94.275c-60.163-60.341-93.919-142.267-93.741-227.6.177-85.333 34.29-167.26 94.808-227.6 60.518-60.341 142.622-94.275 228.133-94.275h.534c85.511 0 167.615 33.934 228.133 94.275M6385.997 398.285c62.022 61.741 97.025 145.569 97.306 232.882.281 87.314-34.16 171.142-95.62 232.883-61.46 61.741-145.007 96.463-232.04 96.463-87.033 0-170.579-34.722-232.04-96.463-61.46-61.741-95.901-145.569-95.62-232.883.281-87.313 35.284-171.141 97.306-232.882 62.022-61.741 146.131-96.463 233.725-96.463h.843c87.595 0 171.704 34.722 233.726 96.463M7755.445 396.699c63.525 63.142 99.419 148.871 99.803 238.165.384 89.295-34.741 175.024-97.499 238.165-62.757 63.142-148.102 98.652-237.013 98.652-88.91 0-174.255-35.51-237.012-98.652-62.758-63.141-97.883-148.87-97.499-238.165.384-89.294 36.277-175.023 99.803-238.165 63.526-63.142 149.639-98.651 239.317-98.651h1.153c89.678 0 175.791 35.509 239.317 98.651M9125.473 395.316c64.838 64.363 101.508 151.751 101.983 242.773.474 91.022-35.249 178.41-99.138 242.773-63.889 64.364-150.803 100.56-241.351 100.56s-177.462-36.196-241.351-100.56c-63.89-64.363-99.612-151.751-99.138-242.773.474-91.022 37.145-178.41 101.982-242.773 64.837-64.364 152.699-100.56 244.196-100.56h1.422c91.496 0 179.358 36.196 244.195 100.56M10496.664 394.337c65.765 65.227 102.986 153.789 103.524 246.033.537 92.244-35.608 180.805-100.297 246.033-64.69 65.227-152.713 101.91-244.42 101.91s-179.73-36.683-244.42-101.91c-64.689-65.228-100.834-153.789-100.297-246.033.538-92.244 37.759-180.806 103.524-246.033 65.765-65.227 154.864-101.91 247.646-101.91h1.613c92.782 0 181.881 36.683 247.646 101.91M11869.599 393.966c66.117 65.555 103.546 154.561 104.108 247.269.561 92.708-35.744 181.714-100.737 247.269s-153.438 102.422-245.584 102.422c-92.146 0-180.59-36.867-245.583-102.422-64.994-65.555-101.299-154.561-100.737-247.269.562-92.708 37.991-181.714 104.108-247.269s155.685-102.422 248.955-102.422h1.685c93.27 0 182.838 36.867 248.955 102.422M13244.858 394.404c65.701 65.168 102.884 153.649 103.417 245.808.533 92.16-35.582 180.641-100.217 245.808-64.635 65.168-152.581 101.817-244.208 101.817-91.627 0-179.573-36.649-244.208-101.817-64.635-65.167-100.75-153.648-100.217-245.808.533-92.159 37.716-180.64 103.417-245.808 65.701-65.167 154.715-101.817 247.408-101.817h1.6c92.693 0 181.707 36.65 247.408 101.817M14623.023 395.855c64.326 63.887 100.693 150.627 101.132 240.975.439 90.348-35.05 177.089-98.498 240.975-63.448 63.887-149.749 99.816-239.658 99.816-89.909 0-176.211-35.929-239.658-99.816-63.448-63.886-98.938-150.627-98.499-240.975.439-90.348 36.807-177.088 101.132-240.975 64.326-63.886 151.505-99.815 242.292-99.815h1.317c90.787 0 177.966 35.929 242.292 99.815M16004.675 398.521c61.799 61.533 96.669 145.077 96.934 232.096.266 87.019-34.073 170.563-95.34 232.096-61.267 61.532-144.546 96.137-231.299 96.137-86.754 0-170.032-34.605-231.299-96.137-61.267-61.533-95.606-145.077-95.341-232.096.266-87.019 35.136-170.563 96.934-232.096 61.798-61.532 145.608-96.137 232.893-96.137h.796c87.285 0 171.095 34.605 232.893 96.137M17390.396 402.604c57.927 57.927 90.504 136.576 90.504 218.496 0 81.92-32.577 160.569-90.504 218.496-57.927 57.927-136.576 90.504-218.496 90.504-81.92 0-160.569-32.577-218.496-90.504-57.927-57.927-90.504-136.576-90.504-218.496 0-81.92 32.577-160.569 90.504-218.496 57.927-57.927 136.576-90.504 218.496-90.504 81.92 0 160.569 32.577 218.496 90.504" fill="none" stroke="#48567b" stroke-width="500" stroke-linecap="round"/><path d="M18780.766 408.307c52.52 52.891 81.894 124.702 81.523 199.501-.371 74.798-30.486 146.61-83.748 199.501-53.263 52.891-125.445 82.636-200.614 82.636-75.17 0-147.352-29.745-200.614-82.636-53.263-52.891-83.378-124.703-83.749-199.501-.371-74.799 29.003-146.61 81.523-199.501 52.52-52.892 123.961-82.637 198.389-82.637h-1.113c74.427 0 145.868 29.745 198.388 82.637" fill="none" stroke="#5a6688" stroke-width="500" stroke-linecap="round"/><path d="M20176.367 415.831c45.386 46.246 70.533 109.036 69.673 174.437-.86 65.401-27.729 128.191-74.835 174.437-47.107 46.247-110.757 72.255-177.019 72.255-66.261 0-129.911-26.008-177.018-72.255-47.106-46.246-73.975-109.036-74.835-174.437-.86-65.401 24.287-128.191 69.673-174.437 45.386-46.246 107.315-72.254 171.856-72.254h-2.581c64.541 0 126.47 26.008 171.856 72.254" fill="none" stroke="#9fa6ba" stroke-width="500" stroke-linecap="round"/><path d="M21577.779 425.38c36.332 37.814 56.116 89.154 54.635 142.63-1.482 53.475-24.229 104.816-63.524 142.629-39.294 37.814-92.116 59.079-147.073 59.079-54.957 0-107.779-21.265-147.074-59.079-39.295-37.813-62.042-89.154-63.524-142.629-1.481-53.476 18.303-104.816 54.635-142.63 36.332-37.813 86.191-59.079 138.185-59.079h-4.445c51.995 0 101.853 21.266 138.185 59.079" fill="none" stroke="#d7dae2" stroke-width="500" stroke-linecap="round"/><path d="M22985.585 437.157c25.166 27.414 38.336 64.634 36.089 103.403-2.248 38.769-19.912 75.99-49.574 103.404-29.661 27.414-69.129 42.831-110.146 42.831-41.016 0-80.484-15.417-110.146-42.831-29.661-27.414-47.326-64.635-49.573-103.404-2.247-38.769 10.922-75.989 36.089-103.403 25.166-27.414 60.14-42.831 96.661-42.831h-6.743c36.522 0 71.495 15.417 96.661 42.831" fill="none" stroke="#f1f2f5" stroke-width="500" stroke-linecap="round"/><path d="M24400.365 451.362c11.697 14.869 16.888 35.058 13.717 56.085-3.172 21.028-14.705 41.216-32.746 56.086-18.041 14.869-41.4 23.231-65.6 23.231-24.199 0-47.559-8.362-65.599-23.231-18.041-14.87-29.574-35.058-32.746-56.086-3.171-21.027 2.019-41.216 13.717-56.085s28.714-23.231 46.571-23.231h-9.515c17.857 0 34.873 8.362 46.571 23.231" fill="none" stroke="#fcfcfd" stroke-width="500" stroke-linecap="round"/><path d="M25822.7 468.2H25707.5" fill="none" stroke="#ffffff" stroke-width="500" stroke-linecap="round"/></svg>